<svg width="100" height="110" viewBox="0 0 118 129" fill="none" xmlns="http://www.w3.org/2000/svg">
<rect x="0.90625" y="0.904785" width="116.423" height="127.098" rx="19.5" fill="white" stroke="#2C445E"/>
<path d="M92.4522 30.5333C86.4659 28.0255 65.8566 19.7412 44.0915 27.7415C36.4876 30.5362 21.909 35.8952 16.5506 51.9497C13.7378 60.3768 12.4946 74.7531 19.9196 84.5937C23.4096 89.2192 26.6103 89.7344 32.7501 93.5631C53.8202 106.698 54.7875 124.71 66.1243 128.109C79.4258 132.097 91.8905 111.438 98.9728 99.6992C107.88 84.9358 121.031 54.9684 110.278 41.7907C106.198 36.7905 101.791 34.4455 92.4522 30.5333Z" fill="#EE1F57"/>
<path d="M45.6667 19.2971L13.5267 27.0153C12.4298 27.2787 11.746 28.4164 11.9994 29.5565L22.6923 77.6564C22.9458 78.7965 24.0405 79.5072 25.1374 79.2438L57.2774 71.5256C58.3744 71.2622 59.0582 70.1244 58.8047 68.9843L48.1118 20.8844C47.8584 19.7444 46.7636 19.0337 45.6667 19.2971Z" fill="#436679"/>
<path d="M13.5356 27.0044C14.3361 28.924 15.1368 30.8433 15.9379 32.7623L45.1085 25.5267C45.2886 23.4545 45.4683 21.3823 45.6478 19.3102L13.5356 27.0044Z" fill="#26435B"/>
<path d="M12.2661 27.9439C12.6142 27.5329 13.0491 27.2113 13.5369 27.0043C14.3373 28.924 15.1381 30.8433 15.9391 32.7622L12.2661 27.9439Z" fill="#233239"/>
<path d="M45.1089 25.5268L47.9392 20.3946C47.8681 20.2494 47.547 19.6303 46.8248 19.3613C46.4463 19.2226 46.0365 19.2048 45.6482 19.3103C45.4684 21.3825 45.2886 23.4546 45.1089 25.5268Z" fill="#233239"/>
<path d="M15.939 32.7622L45.1095 25.5266L45.1889 24.6135L15.939 32.7622Z" fill="#26435B"/>
<path d="M57.264 71.5435C56.4629 69.6239 55.6621 67.7046 54.8617 65.7856L25.6911 73.0212C25.5111 75.0934 25.3313 77.1656 25.1519 79.2377L57.264 71.5435Z" fill="#264561"/>
<path d="M58.7873 68.9912C58.8628 69.1441 59.1006 69.6653 58.9344 70.2651C58.7383 70.9652 58.074 71.4834 57.2646 71.5435C56.4635 69.6239 55.6627 67.7046 54.8623 65.7856L58.7873 68.9912Z" fill="#233239"/>
<path d="M25.6921 73.0211L22.8618 78.1533C22.9324 78.2985 23.254 78.9176 23.9762 79.1867C24.3547 79.3254 24.7645 79.3431 25.1528 79.2376C25.3322 77.1654 25.512 75.0933 25.6921 73.0211Z" fill="#233239"/>
<path d="M54.8628 65.7856L25.6922 73.0212L25.6128 73.9343L54.8628 65.7856Z" fill="#233239"/>
<path d="M30.5486 27.7176C31.2526 27.7176 31.8233 27.1245 31.8233 26.3928C31.8233 25.6611 31.2526 25.068 30.5486 25.068C29.8446 25.068 29.2739 25.6611 29.2739 26.3928C29.2739 27.1245 29.8446 27.7176 30.5486 27.7176Z" fill="#F8FAFD"/>
<path d="M32.5584 36.0232C33.2624 36.0232 33.833 35.4301 33.833 34.6984C33.833 33.9667 33.2624 33.3736 32.5584 33.3736C31.8544 33.3736 31.2837 33.9667 31.2837 34.6984C31.2837 35.4301 31.8544 36.0232 32.5584 36.0232Z" fill="#F8FAFD"/>
<path d="M31.8228 26.3929L33.8328 34.6986" stroke="white" stroke-miterlimit="10"/>
<path d="M29.2739 27.0043L31.284 34.6985" stroke="white" stroke-miterlimit="10"/>
<path d="M118.979 62.8476L95.6538 38.6048C94.8578 37.7774 93.567 37.7774 92.771 38.6048L59.1845 73.5126C58.3884 74.34 58.3884 75.6815 59.1845 76.5089L82.5096 100.752C83.3057 101.579 84.5964 101.579 85.3925 100.752L118.979 65.8439C119.775 65.0164 119.775 63.675 118.979 62.8476Z" fill="#B8BDC3"/>
<path d="M118.983 61.2737L95.6578 37.0309C94.8617 36.2035 93.571 36.2035 92.7749 37.0309L59.1884 71.9387C58.3923 72.7661 58.3923 74.1076 59.1884 74.935L82.5135 99.1778C83.3096 100.005 84.6003 100.005 85.3964 99.1778L118.983 64.27C119.779 63.4426 119.779 62.1011 118.983 61.2737Z" fill="#F8FAFD"/>
<path d="M77.6835 58.0868H44.6967C43.5709 58.0868 42.6582 59.0353 42.6582 60.2055V109.573C42.6582 110.743 43.5709 111.691 44.6967 111.691H77.6835C78.8093 111.691 79.722 110.743 79.722 109.573V60.2055C79.722 59.0353 78.8093 58.0868 77.6835 58.0868Z" fill="#CCCCCB"/>
<path d="M76.6537 57.4243H43.6669C42.5411 57.4243 41.6284 58.3729 41.6284 59.543V108.91C41.6284 110.08 42.5411 111.029 43.6669 111.029H76.6537C77.7795 111.029 78.6922 110.08 78.6922 108.91V59.543C78.6922 58.3729 77.7795 57.4243 76.6537 57.4243Z" fill="#F8FAFD"/>
<path d="M91.341 48.7111L95.8514 49.7302C96.0166 49.7643 97.4741 50.0915 98.1556 51.5646C98.739 52.8257 98.3292 54.0104 98.2537 54.2142L96.6358 62.2651C96.2645 63.4979 95.856 64.7547 95.4101 66.0357C94.0264 69.9924 92.3716 73.8408 90.4585 77.5515" fill="#263238"/>
<path d="M92.8782 52.1001L90.623 69.6796L92.8782 71.2648L97.8299 55.4122C97.8446 55.2756 97.9412 54.1969 97.1435 53.374C96.4081 52.6163 95.4766 52.652 95.3296 52.6606L92.8782 52.1001Z" fill="#F8FAFD"/>
<path d="M92.0726 50.8758L89.8174 68.4552L92.0726 70.0404L97.0242 54.1878C97.0389 54.0513 97.135 52.9726 96.3379 52.1496C95.6025 51.3919 94.671 51.4276 94.5239 51.4363L92.0726 50.8758Z" fill="#CCCCCB"/>
<path d="M91.3407 50.4437L89.0854 68.0231L91.3407 69.6088L96.2923 53.7557C96.307 53.6192 96.4031 52.541 95.6059 51.7175C94.8705 50.9598 93.939 50.996 93.792 51.0042L91.3407 50.4437Z" fill="#F8FAFD"/>
<path d="M59.4245 44.5838L49.3742 90.1374C49.2412 90.8316 49.2749 91.5491 49.4722 92.2266C50.1527 94.5002 52.502 95.2574 52.757 95.3348L82.3688 101.857C82.7291 101.905 83.9994 102.027 85.2613 101.195C86.7321 100.227 87.1042 98.677 87.1733 98.3641C88.3826 92.6493 89.5919 86.9348 90.8013 81.2203C91.2755 78.8255 91.7494 76.4306 92.223 74.0357C92.4912 73.49 93.0815 72.1035 92.8603 70.316C92.7466 69.4105 92.4456 68.5413 91.9779 67.7682C91.5275 66.13 91.3452 64.4247 91.4386 62.7237L93.6448 52.8385C93.6899 52.6963 94.1458 51.1671 93.2035 49.8831C92.5378 48.9761 91.592 48.7621 91.3405 48.7111L63.4937 42.2908C63.3182 42.2312 61.9876 41.8047 60.7482 42.6475C59.7731 43.3099 59.4882 44.329 59.4245 44.5838Z" fill="#2C445E"/>
<path d="M64.3566 42.4896C64.2748 42.4473 62.3642 41.5046 60.7493 42.6475C59.8394 43.2916 59.5236 44.245 59.4256 44.5838C56.1382 59.482 52.8512 74.3804 49.5645 89.2789C49.2126 90.2221 49.1804 91.2618 49.4733 92.2266C49.9635 93.8062 51.1564 94.5471 51.4343 94.7086C52.5458 87.578 53.9837 79.9975 55.8467 72.0485C58.1884 62.0489 61.0289 52.1826 64.3566 42.4896Z" fill="#263238"/>
</svg>
