<svg width="100" height="110" viewBox="0 0 119 129" fill="none" xmlns="http://www.w3.org/2000/svg">
<rect x="0.907227" y="0.404785" width="117.423" height="128.098" rx="20" fill="#EAEAEA"/>
<path d="M21.709 93.8409L57.4808 73.9257L102.463 98.9617L66.6912 118.877L21.709 93.8409Z" fill="#B4B4B4"/>
<path d="M57.4811 73.9261V39.8744L20.9883 60.1933L51.5192 77.2452L57.4811 73.9261Z" fill="#BABABA"/>
<path d="M57.4814 39.8741V73.9258L72.6538 82.3658L103.185 65.3138L57.4814 39.8741Z" fill="#888888"/>
<path d="M20.9883 60.1931V93.4374L66.6916 118.877V85.6851L20.9883 60.1931Z" fill="#888888"/>
<path d="M66.6914 85.6852V118.877L103.184 98.5583V65.314L66.6914 85.6852Z" fill="#BABABA"/>
<path d="M66.6914 85.6853L67.4047 117.614L93.9118 103.724L66.6914 118.877V85.6853Z" fill="#B4B4B4"/>
<path d="M71.0495 108.187C70.9185 108.188 70.7896 108.154 70.6773 108.089C70.5162 107.978 70.3883 107.827 70.3067 107.652C70.225 107.478 70.1924 107.286 70.2121 107.095V104.157V103.94H70.3672L72.7551 102.587V105.944C72.7511 106.366 72.642 106.782 72.4369 107.155C72.2319 107.528 71.9368 107.849 71.5767 108.089C71.4122 108.164 71.2309 108.198 71.0495 108.187ZM70.592 104.374V107.095C70.5756 107.221 70.5926 107.349 70.6414 107.466C70.6902 107.584 70.7693 107.688 70.8711 107.768C70.9551 107.803 71.047 107.816 71.1379 107.807C71.2289 107.798 71.3159 107.766 71.3906 107.716C71.6884 107.504 71.9319 107.23 72.1026 106.914C72.2733 106.598 72.3665 106.248 72.3752 105.892V105.652H71.4914L71.3131 104.494L70.592 104.374ZM71.817 105.279H72.3752V103.245L70.9487 104.06L71.6542 104.18L71.817 105.279Z" fill="#E0E0E0"/>
<path d="M71.4834 110.549C71.432 110.549 71.3827 110.529 71.3463 110.494C71.31 110.459 71.2896 110.412 71.2896 110.362V107.895C71.2896 107.846 71.31 107.798 71.3463 107.763C71.3827 107.728 71.432 107.708 71.4834 107.708C71.5348 107.708 71.5841 107.728 71.6204 107.763C71.6568 107.798 71.6772 107.846 71.6772 107.895V110.362C71.6772 110.412 71.6568 110.459 71.6204 110.494C71.5841 110.529 71.5348 110.549 71.4834 110.549Z" fill="#E0E0E0"/>
<path d="M70.3668 111.177C70.3334 111.175 70.3011 111.165 70.2726 111.148C70.2442 111.131 70.2206 111.108 70.204 111.08C70.1786 111.037 70.1716 110.987 70.1847 110.939C70.1977 110.891 70.2298 110.851 70.2738 110.826L72.4988 109.592C72.5431 109.568 72.5956 109.561 72.645 109.574C72.6943 109.586 72.7365 109.617 72.7624 109.659C72.7748 109.68 72.7829 109.703 72.7861 109.726C72.7893 109.75 72.7876 109.774 72.7811 109.797C72.7746 109.82 72.7634 109.841 72.7483 109.86C72.7331 109.879 72.7142 109.895 72.6927 109.906L70.4676 111.177C70.4349 111.188 70.3994 111.188 70.3668 111.177Z" fill="#E0E0E0"/>
<path d="M78.3055 106.915C78.2324 106.914 78.1607 106.896 78.0961 106.863C78.0193 106.815 77.9573 106.748 77.9163 106.669C77.8754 106.591 77.8572 106.503 77.8635 106.415V105.944C77.8635 105.894 77.884 105.847 77.9203 105.811C77.9567 105.776 78.006 105.757 78.0574 105.757C78.1088 105.757 78.1581 105.776 78.1944 105.811C78.2308 105.847 78.2512 105.894 78.2512 105.944V106.452C78.2358 106.493 78.2358 106.538 78.2512 106.579C78.2512 106.579 78.3132 106.579 78.3752 106.542C78.4935 106.437 78.5867 106.308 78.6483 106.165C78.7099 106.021 78.7384 105.867 78.7319 105.712V102.423C78.7319 102.373 78.7523 102.325 78.7886 102.29C78.825 102.255 78.8743 102.236 78.9257 102.236C78.9771 102.236 79.0264 102.255 79.0627 102.29C79.0991 102.325 79.1195 102.373 79.1195 102.423V105.712C79.128 105.931 79.0834 106.15 78.9892 106.349C78.895 106.549 78.7538 106.725 78.5768 106.863C78.4919 106.901 78.3989 106.919 78.3055 106.915Z" fill="#E0E0E0"/>
<path d="M76.2817 104.037V103.701C76.3288 102.88 76.5758 102.081 77.0028 101.369C77.4298 100.657 78.0247 100.053 78.7394 99.6041C78.9968 99.3968 79.3144 99.2712 79.6486 99.2445C79.9828 99.2178 80.3175 99.2912 80.6068 99.4548C80.8961 99.6185 81.1259 99.8642 81.2649 100.159C81.4038 100.453 81.4451 100.781 81.3831 101.099V101.211L76.2817 104.037ZM79.8868 99.6565C79.5464 99.67 79.2153 99.7678 78.9255 99.9405C78.3174 100.326 77.8025 100.834 77.4159 101.428C77.0292 102.023 76.7799 102.691 76.6849 103.387L80.9955 100.987C81.0102 100.755 80.9639 100.523 80.8609 100.312C80.7579 100.102 80.6015 99.9202 80.4063 99.7836C80.247 99.6997 80.0683 99.656 79.8868 99.6565Z" fill="#E0E0E0"/>
<path d="M85.1904 103.126C85.139 103.126 85.0897 103.106 85.0533 103.071C85.017 103.036 84.9966 102.989 84.9966 102.939V96.652C84.9966 96.6025 85.017 96.5549 85.0533 96.5199C85.0897 96.4848 85.139 96.4651 85.1904 96.4651C85.2418 96.4651 85.2911 96.4848 85.3275 96.5199C85.3638 96.5549 85.3842 96.6025 85.3842 96.652V102.954C85.3803 103.001 85.3582 103.045 85.3223 103.077C85.2863 103.108 85.2392 103.126 85.1904 103.126Z" fill="#E0E0E0"/>
<path d="M84.6316 98.0871H84.5541C84.5306 98.0773 84.5094 98.0632 84.4916 98.0455C84.4738 98.0278 84.4599 98.0069 84.4505 97.984C84.4411 97.961 84.4366 97.9365 84.437 97.9119C84.4375 97.8873 84.4431 97.863 84.4533 97.8404L85.1356 96.3453L85.9109 97.19C85.9464 97.225 85.9663 97.2719 85.9663 97.3208C85.9663 97.3698 85.9464 97.4167 85.9109 97.4517C85.8935 97.4696 85.8725 97.4838 85.8491 97.4935C85.8258 97.5033 85.8006 97.5083 85.7752 97.5083C85.7498 97.5083 85.7246 97.5033 85.7013 97.4935C85.678 97.4838 85.6569 97.4696 85.6395 97.4517L85.2752 97.0555L84.8332 98.0348C84.8083 98.0611 84.7761 98.0801 84.7404 98.0893C84.7046 98.0986 84.6669 98.0978 84.6316 98.0871Z" fill="#E0E0E0"/>
<path d="M86.9648 102.154C86.9134 102.154 86.8641 102.134 86.8278 102.099C86.7914 102.064 86.771 102.017 86.771 101.967V95.6725C86.773 95.6242 86.7943 95.5786 86.8304 95.5451C86.8666 95.5117 86.9147 95.493 86.9648 95.493C87.0149 95.493 87.0631 95.5117 87.0992 95.5451C87.1353 95.5786 87.1566 95.6242 87.1586 95.6725V101.967C87.1586 102.017 87.1382 102.064 87.1019 102.099C87.0655 102.134 87.0162 102.154 86.9648 102.154Z" fill="#E0E0E0"/>
<path d="M86.3998 97.1075C86.3771 97.1144 86.3528 97.1144 86.33 97.1075C86.3061 97.0995 86.2842 97.0866 86.2659 97.0698C86.2475 97.053 86.2331 97.0325 86.2235 97.0099C86.214 96.9873 86.2096 96.9629 86.2106 96.9385C86.2116 96.9141 86.2179 96.8902 86.2293 96.8683L86.9115 95.3732L87.6868 96.2254C87.7053 96.2422 87.7201 96.2624 87.7302 96.2849C87.7403 96.3075 87.7455 96.3317 87.7455 96.3562C87.7455 96.3807 87.7403 96.405 87.7302 96.4275C87.7201 96.45 87.7053 96.4703 87.6868 96.4871C87.651 96.5191 87.6039 96.5369 87.555 96.5369C87.5061 96.5369 87.459 96.5191 87.4232 96.4871L87.0588 96.0834L86.6169 97.0627C86.5905 97.0917 86.5552 97.1117 86.5161 97.1197C86.477 97.1278 86.4362 97.1235 86.3998 97.1075Z" fill="#E0E0E0"/>
<path d="M28.8032 83.7936L38.7657 89.3405C38.8962 89.4224 39.0049 89.5327 39.083 89.6626C39.1611 89.7924 39.2065 89.9382 39.2153 90.0881V96.7713C39.2153 97.3171 38.8122 97.5189 38.3237 97.2722L28.3613 91.7402C28.2303 91.6588 28.1213 91.5486 28.0431 91.4186C27.965 91.2887 27.9199 91.1427 27.9116 90.9927V84.2646C27.9116 83.7413 28.3148 83.517 28.8032 83.7936Z" fill="#FAFAFA"/>
<path d="M28.5634 84.8328L28.8968 85.0197V90.9105L28.5557 90.7236L28.5634 84.8328Z" fill="#B4B4B4"/>
<path d="M29.9351 85.5953L30.5243 85.9318V91.8226L29.9351 91.4936V85.5953Z" fill="#B4B4B4"/>
<path d="M31.3149 86.3652L31.6561 86.5521V92.4504L31.3149 92.2561V86.3652Z" fill="#B4B4B4"/>
<path d="M32.3618 86.9333L33.0363 87.3221V93.2204L32.3618 92.8316V86.9333Z" fill="#B4B4B4"/>
<path d="M34.0757 87.9049L34.4168 88.0918V93.9826L34.0757 93.7957V87.9049Z" fill="#B4B4B4"/>
<path d="M35.0679 88.4436L35.7966 88.8548V94.7531L35.0679 94.3344V88.4436Z" fill="#B4B4B4"/>
<path d="M36.835 89.4376L37.1761 89.6245V95.5228L36.835 95.3284V89.4376Z" fill="#B4B4B4"/>
<path d="M37.626 89.8713L37.7952 89.961V95.8593L37.626 95.7621V89.8713Z" fill="#B4B4B4"/>
<path d="M36.2075 89.1163L36.3768 89.2135V95.1043L36.2075 95.0071V89.1163Z" fill="#B4B4B4"/>
<path d="M33.4312 87.5463L33.6004 87.6435V93.5343L33.4312 93.4371V87.5463Z" fill="#B4B4B4"/>
<path d="M31.9038 86.7017L32.0731 86.7988V92.6896L31.9038 92.5999V86.7017Z" fill="#B4B4B4"/>
<path d="M30.8115 86.126L30.9808 86.2157V92.114L30.8115 92.0168V86.126Z" fill="#B4B4B4"/>
<path d="M29.3301 85.2516L29.4993 85.3488V91.2396L29.3301 91.1499V85.2516Z" fill="#B4B4B4"/>
<path d="M38.2153 90.208L38.5565 90.3949V96.2857L38.2153 96.0988V90.208Z" fill="#B4B4B4"/>
<path d="M57.4811 39.8745L20.9883 60.1933L66.6916 85.6853L103.184 65.3142L57.4811 39.8745Z" fill="#B4B4B4"/>
<path opacity="0.1" d="M20.9883 60.1931L66.6916 84.4292L103.184 65.3139L66.6916 85.6851L20.9883 60.1931Z" fill="white"/>
<path d="M36.1304 51.753L81.8646 77.2151L87.4855 74.0828L41.759 48.6207L36.1304 51.753Z" fill="#888888"/>
<path d="M87.4845 74.0751V80.9676L86.8023 80.5939L86.0968 81.7675L85.3913 81.3713L84.6858 82.56L83.9802 82.1563L83.2747 83.3299L82.5615 82.9412L81.856 84.1224V77.2149L87.4845 74.0751Z" fill="#888888"/>
<path opacity="0.25" d="M87.4845 74.0751V80.9676L86.8023 80.5939L86.0968 81.7675L85.3913 81.3713L84.6858 82.56L83.9802 82.1563L83.2747 83.3299L82.5615 82.9412L81.856 84.1224V77.2149L87.4845 74.0751Z" fill="#B4B4B4"/>
<path opacity="0.1" d="M63.2797 44.27L31.4541 61.9873L63.2797 79.7644L95.1131 61.9873L63.2797 44.27Z" fill="#B4B4B4"/>
<path d="M36.6812 61.5985L63.2813 46.7892L89.8892 61.5985L63.2813 76.4152L36.6812 61.5985Z" fill="#B4B4B4"/>
<path d="M63.2818 46.7895V17.4849L36.0537 32.6455L62.336 47.3202L63.2818 46.7895Z" fill="#BABABA"/>
<path d="M63.2803 17.4847V46.7893L64.2339 47.32L90.5084 32.6453L63.2803 17.4847Z" fill="#888888"/>
<path d="M36.0522 32.6467V61.2561L63.2804 76.4167V47.8522L36.0522 32.6467Z" fill="#888888"/>
<path d="M63.2798 47.8513V76.4158L90.5079 61.2551V32.6458L63.2798 47.8513Z" fill="#BABABA"/>
<path d="M63.2798 47.8509L63.9 75.324L86.709 63.3704L63.2798 76.4154V47.8509Z" fill="#B4B4B4"/>
<path d="M67.041 67.2203C66.9265 67.2231 66.8136 67.1946 66.7153 67.138C66.5763 67.0428 66.4658 66.9138 66.395 66.7642C66.3242 66.6145 66.2957 66.4495 66.3122 66.2858V63.7516V63.5572H66.444L68.5063 62.391V65.2168C68.5063 65.5782 68.4178 65.9344 68.2481 66.2566C68.0783 66.5787 67.8321 66.8577 67.5294 67.0708C67.3857 67.1664 67.2156 67.2185 67.041 67.2203ZM66.6455 63.9385V66.3232C66.6318 66.4313 66.6459 66.541 66.6865 66.6427C66.727 66.7444 66.7928 66.8349 66.8781 66.9063C66.9515 66.9352 67.0313 66.9456 67.11 66.9365C67.1887 66.9273 67.2637 66.8989 67.3278 66.854C67.5843 66.6725 67.794 66.4365 67.9405 66.1642C68.0871 65.8919 68.1666 65.5908 68.1729 65.2841V65.0748H67.3976L67.2503 64.088L66.6455 63.9385ZM67.7 64.7234H68.1729V62.9741L66.9479 63.6693L67.5526 63.774L67.7 64.7234Z" fill="#E0E0E0"/>
<path d="M67.4045 69.2388C67.3613 69.2388 67.3199 69.2223 67.2893 69.1929C67.2588 69.1634 67.2417 69.1235 67.2417 69.0818V66.9588C67.2363 66.9348 67.2365 66.9099 67.2424 66.886C67.2482 66.8621 67.2596 66.8398 67.2756 66.8207C67.2916 66.8015 67.3118 66.7861 67.3348 66.7755C67.3577 66.7649 67.3829 66.7594 67.4084 66.7594C67.4338 66.7594 67.459 66.7649 67.4819 66.7755C67.5049 66.7861 67.5251 66.8015 67.5411 66.8207C67.5571 66.8398 67.5685 66.8621 67.5743 66.886C67.5802 66.9099 67.5804 66.9348 67.575 66.9588V69.0818C67.5751 69.1031 67.5706 69.1241 67.562 69.1437C67.5533 69.1632 67.5406 69.1809 67.5246 69.1956C67.5087 69.2102 67.4898 69.2217 67.4692 69.2291C67.4485 69.2365 67.4265 69.2398 67.4045 69.2388Z" fill="#E0E0E0"/>
<path d="M66.4506 69.7771C66.4208 69.7763 66.3918 69.7684 66.3661 69.754C66.3404 69.7396 66.3188 69.7193 66.3033 69.6948C66.2831 69.6579 66.2783 69.6149 66.2898 69.5746C66.3013 69.5344 66.3283 69.4998 66.3653 69.478L68.2802 68.409C68.3173 68.3969 68.3575 68.3974 68.3942 68.4104C68.4309 68.4235 68.4618 68.4483 68.4818 68.4807C68.5018 68.5131 68.5096 68.5511 68.5039 68.5884C68.4983 68.6258 68.4796 68.6601 68.4508 68.6856L66.5281 69.7546C66.5049 69.769 66.4781 69.7767 66.4506 69.7771Z" fill="#E0E0E0"/>
<path d="M73.2816 66.1139C73.2165 66.1149 73.1524 66.0994 73.0955 66.069C73.0308 66.0279 72.9788 65.9709 72.9447 65.9039C72.9106 65.8368 72.8958 65.7622 72.9016 65.6878V65.2467C72.9016 65.2051 72.9188 65.1651 72.9493 65.1357C72.9799 65.1063 73.0213 65.0897 73.0645 65.0897C73.1077 65.0897 73.149 65.1063 73.1796 65.1357C73.2101 65.1651 73.2273 65.2051 73.2273 65.2467V65.6878C73.2155 65.7217 73.2155 65.7585 73.2273 65.7924C73.2273 65.7924 73.2815 65.7924 73.3358 65.7924C73.4425 65.6983 73.5257 65.5822 73.5794 65.4528C73.6331 65.3234 73.6559 65.1839 73.6459 65.0449V62.2191C73.6459 62.1774 73.6631 62.1375 73.6936 62.1081C73.7241 62.0786 73.7656 62.0621 73.8087 62.0621C73.8519 62.0621 73.8933 62.0786 73.9239 62.1081C73.9544 62.1375 73.9715 62.1774 73.9715 62.2191V65.0449C73.9801 65.2341 73.9424 65.4227 73.8616 65.5954C73.7808 65.768 73.6592 65.92 73.5064 66.0391C73.439 66.0815 73.3617 66.1072 73.2816 66.1139Z" fill="#E0E0E0"/>
<path d="M71.5376 63.6392V63.3327C71.5775 62.6265 71.79 61.9394 72.1579 61.3274C72.5257 60.7155 73.0384 60.1961 73.6541 59.8117C73.8734 59.6342 74.144 59.5261 74.4292 59.502C74.7145 59.4778 75.0005 59.5389 75.2485 59.6768C75.4965 59.8148 75.6945 60.0229 75.8156 60.273C75.9368 60.5232 75.9752 60.8032 75.9257 61.0751V61.1723L71.5376 63.6392ZM74.6388 59.9014C74.3472 59.9132 74.0639 59.9982 73.8169 60.1481C73.2895 60.4817 72.8437 60.922 72.5104 61.4383C72.177 61.9547 71.9641 62.5348 71.8865 63.1384L75.5923 61.0751C75.6061 60.875 75.5671 60.6747 75.479 60.493C75.3909 60.3113 75.2565 60.1541 75.0884 60.036C74.9554 59.9453 74.8007 59.8887 74.6388 59.8715V59.9014Z" fill="#E0E0E0"/>
<path d="M79.2043 62.8549C79.1611 62.8549 79.1197 62.8384 79.0892 62.809C79.0586 62.7795 79.0415 62.7396 79.0415 62.698V57.2856C79.0415 57.2439 79.0586 57.204 79.0892 57.1746C79.1197 57.1451 79.1611 57.1286 79.2043 57.1286C79.2475 57.1286 79.2889 57.1451 79.3194 57.1746C79.35 57.204 79.3671 57.2439 79.3671 57.2856V62.698C79.3671 62.7186 79.3629 62.739 79.3547 62.758C79.3466 62.7771 79.3346 62.7944 79.3194 62.809C79.3043 62.8235 79.2864 62.8351 79.2666 62.843C79.2469 62.8509 79.2257 62.8549 79.2043 62.8549Z" fill="#E0E0E0"/>
<path d="M78.7242 58.5187H78.6544C78.6344 58.5106 78.6162 58.4987 78.601 58.4837C78.5858 58.4687 78.5739 58.4509 78.566 58.4314C78.558 58.4119 78.5542 58.391 78.5547 58.3701C78.5553 58.3491 78.5602 58.3285 78.5691 58.3094L79.1583 57.0012L79.8096 57.7487C79.825 57.7633 79.8373 57.7808 79.8457 57.8C79.8541 57.8193 79.8584 57.84 79.8584 57.8609C79.8584 57.8817 79.8541 57.9024 79.8457 57.9217C79.8373 57.9409 79.825 57.9584 79.8096 57.973C79.778 58.0014 79.7364 58.0172 79.6933 58.0172C79.6501 58.0172 79.6086 58.0014 79.577 57.973L79.2669 57.6291L78.887 58.4739C78.8667 58.495 78.8408 58.5104 78.8121 58.5183C78.7834 58.5262 78.753 58.5264 78.7242 58.5187Z" fill="#E0E0E0"/>
<path d="M80.7091 62.0172C80.6652 62.0173 80.623 62.001 80.5912 61.9717C80.5594 61.9425 80.5406 61.9026 80.5386 61.8603V56.4404C80.5468 56.4037 80.5679 56.3708 80.5982 56.3472C80.6285 56.3236 80.6663 56.3108 80.7053 56.3108C80.7442 56.3108 80.782 56.3236 80.8123 56.3472C80.8426 56.3708 80.8637 56.4037 80.8719 56.4404V61.8378C80.8741 61.86 80.8715 61.8824 80.8643 61.9036C80.8572 61.9248 80.8457 61.9444 80.8305 61.9612C80.8152 61.978 80.7966 61.9916 80.7758 62.0012C80.7549 62.0109 80.7322 62.0163 80.7091 62.0172Z" fill="#E0E0E0"/>
<path d="M80.2438 57.6816H80.1817C80.1617 57.6735 80.1435 57.6616 80.1284 57.6466C80.1132 57.6316 80.1012 57.6138 80.0933 57.5943C80.0853 57.5748 80.0815 57.5539 80.0821 57.533C80.0826 57.512 80.0875 57.4914 80.0964 57.4723L80.6857 56.1641L81.3369 56.9116C81.3657 56.9434 81.3802 56.9848 81.3773 57.0269C81.3744 57.0689 81.3543 57.1081 81.3214 57.1359C81.3051 57.1496 81.2862 57.1602 81.2657 57.1668C81.2452 57.1735 81.2235 57.1763 81.2019 57.1749C81.1583 57.1721 81.1176 57.1527 81.0888 57.1209L80.7787 56.7771L80.3988 57.6218C80.3805 57.6438 80.3566 57.6608 80.3294 57.6713C80.3022 57.6817 80.2727 57.6853 80.2438 57.6816Z" fill="#E0E0E0"/>
<path d="M42.7817 52.957L51.3564 57.7265C51.4686 57.7988 51.5619 57.8951 51.6292 58.008C51.6964 58.1208 51.7357 58.247 51.744 58.3769V64.1182C51.744 64.5967 51.3952 64.791 50.9688 64.5518L42.394 59.7749C42.283 59.7038 42.1909 59.6086 42.1249 59.4969C42.0589 59.3853 42.021 59.2603 42.0142 59.132V53.3832C42.0142 52.9122 42.363 52.7178 42.7817 52.957Z" fill="#FAFAFA"/>
<path d="M42.5728 53.8464L42.8596 54.0109V59.0794L42.5728 58.9224V53.8464Z" fill="#B4B4B4"/>
<path d="M43.7583 54.5115L44.2622 54.7956V59.8641L43.7583 59.58V54.5115Z" fill="#B4B4B4"/>
<path d="M44.9443 55.1696L45.2389 55.334V60.4025L44.9443 60.2381V55.1696Z" fill="#B4B4B4"/>
<path d="M45.8442 55.6556L46.4257 55.992V61.0605L45.8442 60.7316V55.6556Z" fill="#B4B4B4"/>
<path d="M47.3169 56.493L47.6115 56.65V61.7259L47.3169 61.5615V56.493Z" fill="#B4B4B4"/>
<path d="M48.1772 56.9566L48.7975 57.3154V62.3839L48.1772 62.0251V56.9566Z" fill="#B4B4B4"/>
<path d="M49.6973 57.8159L49.9841 57.9728V63.0488L49.6973 62.8844V57.8159Z" fill="#B4B4B4"/>
<path d="M50.3716 58.1823L50.5178 58.2645V63.333L50.3716 63.2583V58.1823Z" fill="#B4B4B4"/>
<path d="M49.1538 57.5393L49.3 57.6141V62.6901L49.1538 62.6078V57.5393Z" fill="#B4B4B4"/>
<path d="M46.7593 56.1862L46.9055 56.2684V61.3369L46.7593 61.2547V56.1862Z" fill="#B4B4B4"/>
<path d="M45.4478 55.4607L45.5939 55.5429V60.6114L45.4478 60.5292V55.4607Z" fill="#B4B4B4"/>
<path d="M44.5107 54.9605L44.6569 55.0428V60.1113L44.5107 60.029V54.9605Z" fill="#B4B4B4"/>
<path d="M43.2388 54.2128L43.3772 54.2951V59.3636L43.2388 59.2813V54.2128Z" fill="#B4B4B4"/>
<path d="M50.8833 58.4742L51.1702 58.6386V63.7071L50.8833 63.5427V58.4742Z" fill="#B4B4B4"/>
<path d="M63.2818 17.4849L36.0537 32.6455L63.2818 47.851L90.51 32.6455L63.2818 17.4849Z" fill="#B4B4B4"/>
<path opacity="0.1" d="M36.0522 32.6458L63.2804 46.7673L90.5085 32.6458L63.2804 47.8513L36.0522 32.6458Z" fill="white"/>
<path d="M48.1543 25.9099L75.4057 41.0781L80.2435 38.3793L52.9999 23.2112L48.1543 25.9099Z" fill="#888888"/>
<path d="M80.244 38.3794V44.3076L79.6626 43.9861L79.0501 44.9953L78.4454 44.6515L77.8406 45.6756L77.2282 45.3317L76.6235 46.3409L76.011 46.0045L75.4062 47.0212V41.0781L80.244 38.3794Z" fill="#888888"/>
<path opacity="0.25" d="M80.244 38.3794V44.3076L79.6626 43.9861L79.0501 44.9953L78.4454 44.6515L77.8406 45.6756L77.2282 45.3317L76.6235 46.3409L76.011 46.0045L75.4062 47.0212V41.0781L80.244 38.3794Z" fill="#B4B4B4"/>
</svg>
