<svg width="100" height="110" viewBox="0 0 119 129" fill="none" xmlns="http://www.w3.org/2000/svg">
<rect x="0.00683594" y="0.404785" width="117.423" height="128.098" rx="20" fill="#EAEAEA"/>
<path d="M102.433 87.7827H14.9521V92.8278H102.433V87.7827Z" fill="#888888"/>
<path d="M16.3158 17.3519L14.9521 87.7825H102.433V17.3519H16.3158Z" fill="#BABABA"/>
<path d="M22.8916 71.0324C22.8588 63.8374 23.6393 56.6615 25.2183 49.6409C26.679 43.1473 28.8149 36.8234 31.5913 30.7719C39.7416 29.6795 47.95 29.073 56.1728 28.9557C66.3702 28.8106 76.5645 29.4177 86.6721 30.7719C88.8176 35.851 90.5925 41.0779 91.983 46.412C94.0803 54.4637 95.2935 62.719 95.6014 71.0324H22.8916Z" fill="#888888"/>
<path d="M30.8828 43.0822C29.5026 44.4805 28.3429 46.0795 27.4434 47.8246C24.2822 53.9797 25.3939 60.0995 25.926 62.3547C34.6914 61.375 44.2681 60.6969 54.5539 60.5385C67.1989 60.344 79.8436 60.9507 92.4115 62.3547C92.7829 58.7626 92.4657 55.1328 91.4768 51.659C90.492 48.2065 88.8617 44.9709 86.6718 42.1226C76.4809 40.9758 66.221 40.5546 55.9701 40.8623C47.5715 41.1144 39.1947 41.8556 30.8828 43.0822Z" fill="#E2E2E2"/>
<path d="M22.8913 71.0326L20.8682 85.7645C33.67 87.1226 46.5356 87.7963 59.4096 87.7826C72.0319 87.7697 84.6449 87.0961 97.1964 85.7645C96.6656 80.8539 96.1339 75.9432 95.6011 71.0326H22.8913Z" fill="#888888"/>
<path d="M28.6565 105.542H89.6552C90.7679 104.901 95.6367 101.935 97.4444 95.7539C98.7969 91.1285 97.6953 87.2336 97.1955 85.7645H20.8673C20.5112 86.8744 18.5933 93.2313 22.1824 99.3864C24.249 102.928 27.1826 104.759 28.6565 105.542Z" fill="#888888"/>
<path d="M20.8682 96.4815V114.626H29.7509L30.8829 103.524L22.8903 96.4815" fill="#888888"/>
<path d="M89.6553 105.542V114.626H98.0939L97.4445 95.7539L89.6553 105.542Z" fill="#888888"/>
<path d="M39.7847 89.9015L41.8271 95.653L74.6389 95.7539L77.3722 89.9015H39.7847Z" fill="#E2E2E2"/>
<path d="M29.77 95.653C31.3902 95.653 32.7036 94.3429 32.7036 92.7268C32.7036 91.1107 31.3902 89.8006 29.77 89.8006C28.1498 89.8006 26.8364 91.1107 26.8364 92.7268C26.8364 94.3429 28.1498 95.653 29.77 95.653Z" fill="#E2E2E2"/>
<path d="M89.6563 94.745C91.2764 94.745 92.5899 93.4349 92.5899 91.8188C92.5899 90.2027 91.2764 88.8926 89.6563 88.8926C88.0361 88.8926 86.7227 90.2027 86.7227 91.8188C86.7227 93.4349 88.0361 94.745 89.6563 94.745Z" fill="#E2E2E2"/>
<path d="M43.4265 77.3895C41.3709 78.4652 40.6193 80.7637 41.4033 82.3338C41.9425 83.4135 43.1766 84.0885 44.5392 84.1501H73.9764C75.5099 84.035 76.8088 83.141 77.2134 81.9302C77.7708 80.238 76.5508 77.9657 74.1787 77.3895H43.4265Z" fill="#E2E2E2"/>
<path d="M81.0578 72.5461C80.6997 72.868 79.4737 74.0476 79.2369 75.9769C78.9021 78.7093 80.8443 80.572 81.0578 80.7698C82.4335 81.3137 86.1218 82.5568 90.5667 81.4257C92.7051 80.8764 94.6982 79.8696 96.4076 78.4752C96.1378 75.9937 95.8681 73.5128 95.5983 71.0326C93.2201 71.4806 90.6244 71.8691 87.8324 72.1425C85.441 72.3776 83.175 72.5007 81.0578 72.5461Z" fill="#E2E2E2"/>
<path d="M22.8909 71.0326L21.7407 79.4076C24.3574 80.7225 27.2444 81.4134 30.1743 81.4257C32.455 81.4294 34.7174 81.0191 36.8508 80.2148C38.3024 79.3844 39.1046 77.775 38.874 76.1787C38.7661 75.4813 38.4754 74.8247 38.0313 74.2754C37.5872 73.7261 37.0054 73.3036 36.345 73.0507L22.8909 71.0326Z" fill="#E2E2E2"/>
<path d="M96.4078 55.3056C100.252 55.2754 102.746 58.4064 102.402 60.7403C102.077 62.9491 99.1077 65.1326 95.6016 64.396C95.8706 61.3655 96.1394 58.3354 96.4078 55.3056Z" fill="#888888"/>
<path d="M20.9784 55.333C17.1344 55.3037 14.6398 58.4348 14.9837 60.7676C15.3095 62.9764 18.2795 65.161 21.7846 64.4244C21.5156 61.3939 21.2468 58.3635 20.9784 55.333Z" fill="#888888"/>
<path d="M16.1133 13.2148L16.3156 17.3519H102.433V13.2148H16.1133Z" fill="#888888"/>
<path d="M19.1479 60.7405V58.5207L23.3349 61.3883L19.1479 60.7405Z" fill="#888888"/>
<path d="M94.7144 60.2358L99.0176 59.924L98.0951 57.8373L94.7144 60.2358Z" fill="#888888"/>
</svg>
