<svg width="489" height="395" viewBox="0 0 489 395" fill="none" xmlns="http://www.w3.org/2000/svg">
<path d="M16.9705 289.311V238.09H11.2842V230.172H21.9175V222.259H33.4868V230.172H45.2841V235.45H86.968V240.287H80.6761V246.102H86.968V331.478H29.5543L16.9705 289.311Z" fill="#F1EDED" stroke="#F1EDED" stroke-miterlimit="10"/>
<path d="M97.1919 348.138V261.72H108.942V254.359H116.854V260.518H125.506V357.254H97.1919V348.138Z" fill="#F1EDED" stroke="#F1EDED" stroke-miterlimit="10"/>
<path d="M142.154 362.674V241.08H149.099V225.967H155.446V216.43H166.071V225.967H177.413V241.08H184.491V383.539L142.154 362.674Z" fill="#F1EDED" stroke="#F1EDED" stroke-miterlimit="10"/>
<path d="M255.277 322.827V222.91H264.392V180.482H307.972V205.819H315.837V221.14H325.274V290.04H342.577V352.824H259.083L255.277 322.827Z" fill="#F1EDED" stroke="#F1EDED" stroke-miterlimit="10"/>
<path d="M369.355 322.428V255.761H378.659V229.211H388.624V217.415H395.93V209.07H401.908V217.415H409.883V230.997H418.864V255.761H433.021V347.802L449.073 318.706V304.728V282.327H483.357V331.278V366.09L471.89 374.69H414.932H369.355V322.428Z" fill="#F1EDED" stroke="#F1EDED" stroke-miterlimit="10"/>
<path d="M27.2261 222.261V209.07" stroke="#F1EDED" stroke-miterlimit="10"/>
<path d="M108.944 261.721V239.409" stroke="#F1EDED" stroke-miterlimit="10"/>
<path d="M114.921 239.409V267.494" stroke="#F1EDED" stroke-miterlimit="10"/>
<path d="M163.329 206.864V227.531" stroke="#F1EDED" stroke-miterlimit="10"/>
<path d="M156.573 197.947V238.09" stroke="#F1EDED" stroke-miterlimit="10"/>
<path d="M280.052 197.948V163.068" stroke="#F1EDED" stroke-miterlimit="10"/>
<path d="M287.129 166.714V197.949" stroke="#F1EDED" stroke-miterlimit="10"/>
<path d="M398.811 195.347V234.131" stroke="#F1EDED" stroke-miterlimit="10"/>
<path d="M473.315 384.791V240.074H461.039V231.33H467.18L464.288 226.821H445.635V240.074H435.403V246.933H445.635V363.764H431.827V312.433H391.215V353.566H377.022V235.745L365.587 240.074V231.33L357.764 234.465L355.591 242.548L345.131 246.933V236.556L333.504 240.693V249.351L314.979 254.917V322.946L307.142 319.236V301.332L283.273 300.806V234.985L290.754 235.127L276.861 226.821H227.172L213.934 231.33L223.068 233.89V329.131H205.969V299.761H171.121V360.053L161.41 351.624V261.72H143.27H127.267V336.33H118.333V307.597H88.1519V296.353H79.7232V287.695H67.668V296.353L58.0565 292.451V318.048H39.2469V258.071H26.7642V384.791H473.315Z" fill="#F1EDED" stroke="white" stroke-miterlimit="10"/>
<path d="M178.538 317.999V276.563" stroke="#F1EDED" stroke-miterlimit="10"/>
<path d="M190.65 326.658V285.222" stroke="#F1EDED" stroke-miterlimit="10"/>
<path d="M239.812 241.311V199.875" stroke="#F1EDED" stroke-miterlimit="10"/>
<path d="M65.9397 352.032C65.9397 345.247 60.4409 339.746 53.6583 339.746C46.8757 339.746 41.377 345.247 41.377 352.032C41.3755 353.549 41.6557 355.053 42.2033 356.468C42.2146 356.504 42.2258 356.541 42.2377 356.577L42.2732 356.644C42.6187 357.494 43.0584 358.303 43.5839 359.055C46.226 363.917 51.8551 374.244 52.7096 375.555C53.1172 376.179 53.443 376.295 53.6608 376.295C54.0053 376.295 54.3474 376.046 54.612 375.555L63.6834 359.134C65.1558 357.059 65.9445 354.576 65.9397 352.032Z" fill="#B6C1C9"/>
<circle cx="53.6739" cy="351.271" r="5.73006" fill="white"/>
<path d="M354.075 319.073C354.075 312.288 348.577 306.787 341.794 306.787C335.011 306.787 329.513 312.288 329.513 319.073C329.511 320.59 329.791 322.094 330.339 323.509C330.35 323.545 330.362 323.582 330.373 323.618L330.409 323.685C330.754 324.535 331.194 325.344 331.72 326.096C334.362 330.958 339.991 341.285 340.845 342.596C341.253 343.22 341.579 343.336 341.797 343.336C342.141 343.336 342.483 343.087 342.748 342.596L351.819 326.175C353.292 324.1 354.08 321.617 354.075 319.073Z" fill="#B6C1C9"/>
<circle cx="341.81" cy="318.312" r="5.73006" fill="white"/>
<path d="M458.585 293.866C458.585 289.844 455.325 286.584 451.305 286.584C447.285 286.584 444.025 289.844 444.025 293.866C444.025 294.765 444.191 295.657 444.515 296.495C444.522 296.517 444.529 296.539 444.536 296.56L444.557 296.6C444.761 297.104 445.022 297.583 445.334 298.029C446.9 300.911 450.236 307.032 450.743 307.809C450.984 308.179 451.177 308.248 451.306 308.248C451.511 308.248 451.713 308.1 451.87 307.809L457.247 298.076C458.12 296.846 458.587 295.374 458.585 293.866Z" fill="#B6C1C9"/>
<circle cx="451.314" cy="293.416" r="3.39642" fill="white"/>
<path d="M193.418 239.452C193.418 229.466 185.326 221.371 175.343 221.371C165.361 221.371 157.269 229.466 157.269 239.452C157.266 241.685 157.679 243.899 158.485 245.981C158.501 246.034 158.518 246.089 158.535 246.142L158.588 246.24C159.096 247.491 159.743 248.682 160.517 249.789C164.405 256.944 172.69 272.142 173.947 274.072C174.547 274.991 175.027 275.162 175.347 275.162C175.854 275.162 176.358 274.794 176.747 274.072L190.098 249.905C192.265 246.851 193.425 243.197 193.418 239.452Z" fill="#B6C1C9"/>
<circle cx="175.366" cy="238.332" r="8.43313" fill="white"/>
<path d="M2.9007e-05 42.351C-0.0387114 44.103 38.7405 46.3588 38.7405 46.3588C129.316 51.632 145 49.7941 145 49.2216C145 48.649 132.459 48.5975 131.718 44.6412C131.397 42.9235 133.317 40.7593 133.931 40.0608C136.366 37.2953 138.685 37.5243 138.912 36.0529C139.206 34.1463 135.741 31.0602 132.824 31.4725C130.234 31.8389 128.823 34.8563 127.844 34.3352C126.864 33.8142 127.954 31.1747 126.737 30.3274C125.807 29.6804 124.75 30.8999 123.416 30.3274C122.082 29.7548 122.198 28.2376 121.202 26.8921C120.4 25.8099 118.778 24.6706 115.115 24.6018C116.309 21.7168 116.693 18.5415 116.221 15.441C114.699 6.40041 104.815 -2.30811 97.4046 0.55465C91.7596 2.73607 87.8634 11.519 90.2099 21.1665C88.4887 18.653 85.4117 18.1034 83.5687 19.4489C82.918 19.9861 82.42 20.6957 82.1277 21.5022C81.8353 22.3086 81.7596 23.1819 81.9084 24.0293C78.4882 22.6494 72.1292 20.3592 70.8397 22.3116C70.4412 22.9128 70.3195 24.2354 72.5 27.4646C57.5573 20.8803 52.3273 20.8688 50.9161 22.8842C49.2945 25.2088 53.2848 29.48 51.4695 33.1901C49.4107 37.3927 41.729 37.1407 35.9733 37.198C16.6031 37.3869 0.0277008 41.2059 2.9007e-05 42.351Z" fill="#F4F4F4"/>
<path d="M302.181 52.0809C314.471 59.0928 334.087 55.1622 359.98 52.0809C380.004 49.6956 390 49.4636 390 47.9044C390 46.4287 381.119 42.4749 373.422 44.656C370.666 45.4356 367.319 47.2129 364.461 45.5841C363.116 44.8277 361.911 43.3427 360.428 43.7279C359.245 44.0341 358.873 45.2825 358.188 45.12C357.184 44.8787 357.677 42.1408 356.396 41.4076C354.836 40.5166 352.179 43.4587 351.467 42.7998C350.862 42.2429 352.811 40.1407 352.811 36.767C352.856 35.1107 352.385 33.4835 351.467 32.1264C350.123 30.2702 348.057 29.718 346.538 29.3421C341.439 28.0799 339.369 30.5394 337.129 28.878C335.337 27.5648 336.206 25.7225 333.993 22.8453C332.63 21.2514 330.948 19.9845 329.064 19.1329C321.689 15.7081 308.718 20.4972 307.109 27.4859C305.953 32.5023 310.882 37.607 308.901 39.5514C308.413 40.0154 307.235 40.0154 304.869 40.0154C300.648 40.0154 299.725 39.3054 298.148 40.0154C296.571 40.7254 295.15 42.4656 295.012 44.1919C294.716 47.8255 300.169 50.9347 302.181 52.0809Z" fill="#F4F4F4"/>
<rect x="5" y="385" width="484" height="10" rx="5" fill="#547388"/>
<path d="M440.192 353.75C440.774 353.656 443.979 353.194 446.939 355.362C449.741 357.415 450.337 360.379 450.445 361.008C450.107 361.579 449.633 362.41 449.094 363.43C448.527 364.514 447.772 365.945 447.205 367.463C446.457 369.458 446.235 371.063 446.127 371.764C445.545 375.472 442.384 390.024 439.919 390.045C438.892 390.053 437.441 387.566 435.602 376.333C434.143 371.345 432.692 366.364 431.233 361.377C434.222 358.839 437.204 356.295 440.192 353.75Z" fill="#263238"/>
<path d="M398.307 368.446C400.241 370.395 403.362 373.434 407.42 376.96C413.156 381.932 416.598 384.251 415.998 386.003C415.595 387.174 413.639 387.436 410.365 387.865C410.365 387.865 404.124 388.693 398.666 386.563C398.666 386.563 398.637 386.556 398.608 386.541C398.593 386.541 398.586 386.534 398.571 386.534C397.48 386.301 395.692 385.967 393.48 385.734C387.18 385.066 385.283 386.054 383.825 384.673C381.65 382.601 383.122 377.759 384.097 374.561C385.32 370.526 387.268 367.574 388.653 365.778C391.869 366.673 395.092 367.56 398.307 368.446Z" fill="#263238"/>
<path d="M438.702 352.636C440.026 352.65 442.449 352.837 445.091 354.101C447.198 355.106 448.612 356.391 449.433 357.274C448.469 358.954 447.694 360.376 447.13 361.417C445.866 363.772 445.565 364.497 445.339 365.072C444.639 366.917 444.413 368.389 444.316 368.971C443.924 371.354 441.035 386.942 438.694 387.014C437.731 387.043 436.324 384.472 434.352 373.114C432.975 368.59 431.598 364.074 430.221 359.55C433.051 357.253 435.872 354.941 438.702 352.636Z" fill="#37474F"/>
<path d="M416.065 386.459C416.065 385.296 416.065 384.132 416.065 382.969L406.965 384.714C407.247 385.817 407.522 386.921 407.804 388.025" fill="#263238"/>
<path d="M398.846 366.426C400.721 368.374 403.747 371.413 407.682 374.939C413.244 379.911 416.582 382.23 416 383.982C415.609 385.153 413.713 385.415 410.537 385.844C410.537 385.844 404.485 386.672 399.194 384.542C399.194 384.542 399.165 384.535 399.137 384.521C399.123 384.521 399.115 384.513 399.101 384.513C398.043 384.281 396.31 383.946 394.165 383.714C388.056 383.045 386.216 384.033 384.802 382.652C382.693 380.58 384.121 375.738 385.065 372.54C386.252 368.505 388.141 365.553 389.483 363.757C392.609 364.652 395.727 365.539 398.846 366.426Z" fill="#37474F"/>
<path d="M402.921 370.849C402.153 370.808 400.546 370.816 398.785 371.625C397.255 372.326 396.312 373.308 395.843 373.869" stroke="white" stroke-miterlimit="10" stroke-linecap="round" stroke-linejoin="round"/>
<path d="M406.967 373.882C406.084 373.836 404.253 373.851 402.236 374.656C400.487 375.361 399.412 376.334 398.878 376.901" stroke="white" stroke-miterlimit="10" stroke-linecap="round" stroke-linejoin="round"/>
<path d="M411.01 376.915C410.128 376.869 408.297 376.884 406.28 377.688C404.53 378.393 403.455 379.366 402.921 379.933" stroke="white" stroke-miterlimit="10" stroke-linecap="round" stroke-linejoin="round"/>
<path d="M406.938 371.846L382.699 369.782L394.815 210.674L401.192 202.303L423.63 198.942C423.79 200.811 423.986 203.592 424.088 206.952C424.654 225.745 421.495 239.838 420.427 244.944C416.751 262.506 416.672 280.792 414.71 298.701C412.844 315.771 410.156 340.654 406.938 371.846Z" fill="#2C455F"/>
<path d="M395.607 226.045L400.863 278.066L443.365 348.979C437.877 354.244 432.397 359.502 426.909 364.767C412.434 343.887 397.967 323.008 383.492 302.136C381.009 299.453 377.837 295.457 375.035 289.974C371.805 283.657 370.302 277.776 369.547 273.671C367.522 252.762 365.504 231.854 363.486 210.946L423.947 201.975" fill="#2C455F"/>
<path d="M404.509 221.188C403.636 222.476 402.091 224.409 399.651 226.102C397.405 227.665 395.258 228.418 393.82 228.809C395.28 245.361 396.739 261.906 398.192 278.458L430.221 328.368L400.767 278.603C399.508 262.825 398.242 247.04 396.983 231.262C397.991 230.85 400.245 229.772 402.084 227.332C403.972 224.828 404.394 222.281 404.509 221.188Z" fill="#133055"/>
<path d="M374.61 289.943C392.133 314.882 409.657 339.821 427.188 364.767C416.917 349.028 406.638 333.283 396.367 317.545C389.115 308.344 381.862 299.144 374.61 289.943Z" fill="#133055"/>
<path d="M439.322 365.213C438.531 365.003 436.852 364.636 434.829 364.816C433.073 364.974 431.856 365.476 431.233 365.779" stroke="white" stroke-miterlimit="10" stroke-linecap="round" stroke-linejoin="round"/>
<path d="M439.322 369.259C438.432 369.049 436.543 368.681 434.268 368.862C432.292 369.019 430.922 369.521 430.222 369.824" stroke="white" stroke-miterlimit="10" stroke-linecap="round" stroke-linejoin="round"/>
<path d="M438.309 374.313C437.518 374.103 435.839 373.735 433.817 373.916C432.06 374.074 430.843 374.575 430.22 374.879" stroke="white" stroke-miterlimit="10" stroke-linecap="round" stroke-linejoin="round"/>
<path d="M437.321 169.331C440.519 170.838 437.091 183.712 436.602 185.69C435.2 191.343 432.577 201.922 424.378 205.643C423.039 206.251 419.264 207.964 416.109 206.183C414.471 205.257 412.963 203.369 412.873 201.329C412.71 197.583 417.973 197.121 422.041 191.622C426.034 186.229 423.537 183.353 427.794 176.881C430.431 172.876 435.132 168.299 437.321 169.331Z" fill="#C77B63"/>
<path d="M353.101 180.657C352.654 180.657 352.292 180.295 352.292 179.848C352.292 179.402 352.654 179.04 353.101 179.04C353.547 179.04 353.91 179.402 353.91 179.848C353.91 180.295 353.547 180.657 353.101 180.657Z" fill="#666666"/>
<path d="M364.607 178.502C364.16 178.502 363.798 178.14 363.798 177.693C363.798 177.246 364.16 176.884 364.607 176.884C365.053 176.884 365.416 177.246 365.416 177.693C365.416 178.14 365.053 178.502 364.607 178.502Z" fill="#666666"/>
<path d="M328.798 105.012L342.332 134.637H330.98L320.834 107.514C320.845 107.205 320.922 106.901 321.061 106.623C321.199 106.346 321.396 106.102 321.638 105.907C321.865 105.736 322.125 105.613 322.401 105.544C322.677 105.475 322.964 105.461 323.245 105.505L328.798 105.012Z" fill="#1A1A1A"/>
<path d="M328.797 105.014L342.331 134.638L342.934 133.233L332.085 106.712C331.779 106.105 331.285 105.612 330.677 105.307C330.095 105.019 329.439 104.917 328.797 105.014Z" fill="#333333"/>
<path d="M408.659 75.6454C408.093 75.6866 407.539 75.8253 407.021 76.0553C405.099 76.9164 405.108 78.4804 403.338 79.1239C402.513 79.4241 401.337 79.5103 400.677 78.9189C400.494 78.7498 400.354 78.5397 400.267 78.3059C400.111 77.9122 397.909 72.3845 395.151 69.3016C394.537 68.614 393.848 67.9961 393.098 67.459C389.935 65.2029 387.258 65.595 386.959 64.3905C386.704 63.3605 388.398 62.0051 389.62 61.3202C392.448 59.7347 395.583 60.5166 398.624 61.3202C402.568 62.3628 404.618 62.9038 406.196 64.7985C407.075 65.8465 407.594 67.0545 408.659 75.6454Z" fill="#333333"/>
<path d="M406.614 103.479C406.572 103.118 406.487 102.763 406.358 102.422C405.999 101.512 405.434 101.124 404.976 99.3859C404.491 97.5487 404.652 95.911 404.976 92.6322C405.172 90.6548 405.269 89.6571 405.589 88.7439C406.473 86.2272 407.706 85.9702 409.069 83.6279C410.741 80.7516 411.406 76.7969 410.092 75.8513C409.359 75.3121 408.039 75.7362 407.022 76.0562C406.439 76.236 405.557 76.5164 404.771 77.284C403.906 78.1271 404.014 78.7329 403.333 79.1248C402.571 79.5688 401.404 79.4842 400.672 78.9198C400.061 78.456 400.101 77.9276 399.445 75.4414C399.072 74.0339 398.844 73.1782 398.422 72.168C398.031 71.2362 397.549 70.3451 396.984 69.5075C396.035 68.096 394.86 66.8509 393.505 65.8223C392.633 65.1644 391.528 64.3212 389.82 63.7765C388.298 63.3062 386.694 63.1666 385.114 63.3667C383.304 63.5465 380.169 63.8556 378.155 66.2321C376.994 67.6055 376.717 69.0688 376.314 71.1433C376.135 72.0421 375.595 74.8481 376.109 77.692C376.221 78.3247 376.406 79.0726 376.314 80.1476C376.234 81.0877 376.012 81.467 375.905 82.6049C375.848 83.2856 375.848 83.9699 375.905 84.6506C376.059 87.3974 376.138 88.7691 376.314 89.3569C376.868 91.2031 377.483 90.8992 378.565 93.6549C378.937 94.6023 379.052 95.1165 379.588 95.9057C380.118 96.7249 380.816 97.4226 381.635 97.9531C382.912 98.7584 383.613 98.5841 383.886 99.1809C384.159 99.7777 383.5 100.324 383.068 101.432C382.414 103.107 382.82 104.599 382.863 105.115C383.232 109.479 364.108 117.404 364.686 120.436C364.946 121.806 369.133 121.694 377.628 122.414C393.205 123.733 395.846 125.529 400.818 123.133C404.953 121.141 409.91 116.631 409.447 112.706C409.199 110.526 406.89 105.336 406.614 103.479Z" fill="#EF977C"/>
<path d="M379.191 87.926C379.312 87.5108 379.73 87.2823 382.055 86.6963C384.861 85.9916 384.899 86.1572 389.218 85.4687C390.236 85.3051 390.908 85.1882 391.059 85.4687C391.298 85.9109 390.114 87.0541 389.218 87.721C388.206 88.4724 387.701 88.5101 384.102 89.7667C382.342 90.3815 381.911 90.5648 381.237 90.3814C380.022 90.0561 378.945 88.7673 379.191 87.926Z" fill="#E6E6E6"/>
<path d="M389.525 74.7228C389.618 74.9245 389.648 75.1492 389.611 75.3681C389.575 75.587 389.473 75.7899 389.32 75.9506C389.137 76.1382 388.896 76.2601 388.636 76.2971C388.376 76.3342 388.111 76.2844 387.882 76.1556C387.325 75.8428 387.086 75.0771 387.37 74.6205C387.58 74.2879 388.012 74.2321 388.19 74.2105C388.33 74.1944 389.202 74.1026 389.525 74.7228Z" fill="black"/>
<path d="M390.856 75.2371C390.818 75.2946 390.043 74.5181 388.808 74.4192C387.413 74.3005 386.394 75.1149 386.353 75.0322C386.311 74.9495 387.304 73.9681 388.603 74.0094C389.95 74.058 390.897 75.1724 390.856 75.2371Z" fill="black"/>
<path d="M379.795 77.0766C379.784 77.127 378.922 76.7261 377.954 77.0766C377.18 77.3553 376.79 77.9522 376.725 77.8947C376.66 77.8372 376.953 77.1935 377.545 76.8718C378.537 76.3307 379.815 77.0155 379.795 77.0766Z" fill="black"/>
<path d="M377.964 77.0807C378.276 76.9279 378.435 76.8525 378.577 76.8758C378.97 76.9423 379.355 77.5625 379.191 78.1036C379.149 78.2497 379.071 78.3828 378.963 78.4904C378.856 78.5979 378.723 78.6763 378.577 78.7184C377.902 78.8622 377.191 77.9059 377.349 77.4906C377.401 77.3522 377.588 77.2623 377.964 77.0807Z" fill="black"/>
<path d="M405.969 76.4514L405.401 76.667C403.436 75.8419 401.748 75.2451 400.472 74.8281C398.866 74.3014 397.653 73.9113 395.978 73.5985C394.828 73.387 393.665 73.2506 392.497 73.1904L389.019 70.9398L393.112 71.9626C398.652 73.3503 401.478 74.0713 404.162 75.4411C404.962 75.8546 405.593 76.2231 405.969 76.4514Z" fill="#1A1A1A"/>
<path d="M390.752 72.064C391.738 73.0743 391.696 74.4584 391.673 75.235C391.655 75.8264 391.603 77.1153 390.65 78.3054C390.255 78.7991 389.758 79.2013 389.192 79.484C388.627 79.7668 388.007 79.9234 387.375 79.9431C386.231 79.9486 385.13 79.5082 384.306 78.7153C382.67 77.0974 383.116 74.8145 383.181 74.5196C383.389 73.4653 383.97 72.5212 384.817 71.8592C386.116 70.8777 387.551 70.9962 388.092 71.0394C388.764 71.0951 389.899 71.1886 390.752 72.064Z" stroke="#1A1A1A" stroke-miterlimit="10"/>
<path d="M380.928 76.7704C380.766 76.0209 380.372 75.3413 379.803 74.8273C379.152 74.2521 378.318 73.9255 377.45 73.9051C375.992 73.8764 375.009 74.7464 374.687 75.0304C373.962 75.6784 373.458 76.5381 373.249 77.4877C373.026 78.5272 373.171 79.6118 373.659 80.5564C374.048 81.36 374.696 82.0092 375.499 82.3989C376.335 82.7765 377.276 82.849 378.16 82.6038" stroke="#1A1A1A" stroke-miterlimit="10"/>
<path d="M382.463 75.0332C382.026 74.9182 381.424 75.8799 380.418 77.4906C379.762 78.5231 379.213 79.62 378.78 80.764C378.215 82.2543 377.93 83.0021 378.165 83.4245C378.983 84.8896 383.621 84.5031 384.306 82.8097C384.611 82.0547 383.883 81.6467 383.281 79.5362C382.524 76.8775 383.022 75.1806 382.463 75.0332Z" fill="#C77B63"/>
<path d="M376.276 80.5497L372.232 78.1013L372.827 76.8682L376.12 79.3291L376.348 79.6743L376.276 80.5497Z" fill="#1A1A1A"/>
<path d="M383.18 74.9287C382.687 74.7544 382.156 74.7196 381.645 74.8281C381.089 74.9488 380.584 75.2353 380.194 75.6497" stroke="#1A1A1A" stroke-miterlimit="10"/>
<path d="M383.898 99.1816C384.518 98.2702 385.729 98.4124 387.171 98.1589C390.099 97.643 391.243 96.1294 396.177 92.4281C401.39 88.5128 405.48 86.5371 405.59 86.697C405.699 86.857 400.403 89.16 398.428 94.2706C397.889 95.6818 397.93 96.3809 396.99 98.5669C396.216 100.368 395.255 102.082 394.124 103.683C392.397 106.099 391.183 106.919 391.259 108.596C391.304 109.572 391.76 110.201 391.464 110.437C390.88 110.904 388.53 108.887 388.19 108.596C387.602 108.094 387.055 107.546 386.553 106.958C385.803 106.074 384.464 104.456 383.892 102.047C383.617 100.864 383.392 99.9223 383.898 99.1816Z" fill="#C77B63"/>
<path d="M408.659 75.6465C408.557 75.6465 408.659 74.2462 408.046 71.7582C407.304 68.7292 406.727 66.3653 404.771 65.0045C403.574 64.1668 402.155 63.926 399.32 63.4658C398.102 63.2627 397.01 63.1979 397.01 63.1979C395.786 63.126 395.641 63.2248 394.744 63.1619C392.833 63.0289 392.766 62.5275 391.468 62.5491C390.091 62.5724 390.124 63.1422 388.4 63.367C386.676 63.5917 386.5 63.056 385.125 63.367C384.835 63.4335 383.972 63.8901 382.259 64.8051C381.035 65.4558 379.599 66.2432 379.599 66.2432C379.599 66.2432 378.727 67.1958 378.16 67.8807C376.852 69.4824 377.023 69.9013 376.525 70.1314C374.862 70.899 370.623 67.3181 371.204 65.2202C371.308 64.8427 371.516 64.699 374.272 62.5598L376.115 61.1217C379.124 58.7704 379.424 58.3534 380.609 57.6433C381.639 57.035 382.739 56.5522 383.884 56.2052C387.967 54.8768 391.614 55.425 393.911 55.7953C396.707 56.2465 399.403 56.6814 402.303 58.6606C404.341 60.0169 406.025 61.8415 407.214 63.9817C410.158 69.3836 408.877 75.6375 408.659 75.6465Z" fill="#1A1A1A"/>
<path d="M406.042 109.114C404.08 109.148 403.854 112.916 400.109 115.226C398.312 116.339 396.602 116.547 394.177 116.844C391.411 117.18 388.607 116.997 385.908 116.305C381.695 115.226 381.024 112.92 379.077 113.249C376.631 113.662 375.227 117.383 374.044 121.698C370.567 134.371 370.946 145.022 370.988 145.966C371.479 157.257 373.262 157.131 372.785 165.38C372.271 174.264 369.764 181.99 369.55 182.637C367.876 187.694 365.634 192.328 364.696 200.074C364.168 204.435 364.565 205.546 364.876 206.186C367.488 211.558 377.517 211.468 385.189 211.399C392.559 211.333 401.727 211.137 411.435 205.467C415.846 202.891 419.547 200.73 422.041 196.659C428.248 186.526 418.381 178.596 415.929 155.673C414.924 146.282 413.883 122.402 409.457 112.709C409.044 111.811 407.715 109.085 406.042 109.114Z" fill="#F9FDFF"/>
<path d="M417.726 212.116C416.798 211.195 418.105 209.367 418.804 205.285C419.369 201.988 419.209 199.142 417.726 191.443C414.546 174.939 412.753 174.883 412.333 166.635C412.054 161.171 412.768 159.774 411.794 154.951C410.535 148.715 408.883 148.798 407.659 142.547C406.78 138.064 407.443 137.073 406.58 128.166C406.367 125.951 406.273 123.728 406.041 121.515C405.897 120.136 405.8 119.422 405.861 118.279C405.972 116.767 406.213 115.268 406.58 113.798V113.785C406.701 113.26 404.919 112.886 404.603 111.987C404.332 111.211 405.39 110.74 406.041 109.111C406.111 108.931 407.012 106.594 406.041 104.797C405.158 103.163 403.255 102.945 403.345 102.64C403.463 102.237 406.852 102.28 409.816 104.078C411.851 105.318 411.542 106.647 413.411 107.673C415.232 108.673 416.66 108.239 418.625 108.392C421.957 108.651 424.289 110.396 426.894 112.347C432.95 116.882 434.623 124.391 435.882 129.964C437.334 136.401 436.121 136.486 437.5 145.783C438.769 154.34 439.865 154.723 440.915 162.501C441.947 170.139 442.384 180.837 439.477 181.736C438.968 181.892 438.059 181.54 436.241 180.837C432.668 179.453 431.895 178.34 431.208 178.68C429.896 179.33 431.519 183.999 432.287 190.544C433.034 196.918 433.432 200.296 431.927 203.667C428.896 210.46 419.597 213.972 417.726 212.116Z" fill="#E2E0E5"/>
<path d="M344.743 153.334C344.894 153.873 345.877 157.557 343.484 160.884C342.032 162.905 339.31 164.825 336.474 164.479C332.12 163.94 329.36 158.308 328.924 154.413C328.695 152.378 329.148 151.238 328.564 147.941C328.424 147.147 328.102 145.856 327.485 143.267C326.887 140.751 326.587 139.492 326.407 138.953C325.023 134.784 323.635 134.682 323.71 132.482C323.773 130.61 324.789 130.091 324.609 127.808C324.518 126.69 324.23 126.285 323.89 125.111C322.866 121.57 323.387 117.985 323.89 117.921C324.507 117.84 325.05 123.046 326.587 123.134C327.98 123.213 328.548 118.999 331.44 118.28C332.348 118.056 333.108 118.268 333.777 118.46C338.99 119.961 341.187 127.157 342.046 129.965C343.211 133.774 342.81 135.34 342.406 136.257C342.226 136.679 341.462 138.401 339.709 139.313C337.998 140.211 336.585 139.672 336.114 140.571C335.798 141.177 336.377 141.538 336.653 143.267C336.966 145.218 336.418 145.951 337.013 146.683C337.552 147.353 338.402 147.206 339.35 147.402C341.962 147.941 344.024 150.796 344.743 153.334Z" fill="#EF977C"/>
<path d="M383.033 103.18C383.116 103.25 382.62 103.868 382.25 105.123C382.109 105.604 382.01 106.097 381.955 106.595C381.955 106.595 381.811 107.854 382.494 112.168C381.436 113.305 380.53 114.574 379.798 115.943C378.473 118.429 378.498 119.828 377.64 122.414C376.136 126.95 374.683 126.797 373.686 130.144C372.808 133.083 373.461 134.771 374.045 139.672C374.225 141.259 374.004 139.729 374.584 152.435C375.341 169.02 375.609 168.921 375.304 171.849C375.023 174.546 374.834 174.251 371.888 186.051C369.134 197.077 367.753 202.589 367.394 205.645C366.152 216.091 367.599 223.168 365.776 223.621C365.057 223.801 364.444 222.643 362.181 219.846C356.788 213.173 355.58 213.903 354.631 211.577C352.544 206.465 358.521 203.385 360.563 191.623C361.102 188.492 360.532 189.579 361.282 181.197C361.868 174.643 362.639 169.286 363.259 165.018C364.726 154.919 365.859 149.616 365.057 149.379C364.518 149.217 363.831 151.633 360.922 155.311C359.608 156.974 357.796 159.23 354.99 161.064C352.342 162.793 351.663 162.282 347.081 164.299C341.177 166.897 341.377 168.153 338.991 168.254C334.539 168.434 329.284 164.256 328.206 158.906C327.58 155.789 328.303 152.816 328.745 152.794C329.187 152.773 329.038 155.761 331.082 158.906C331.923 160.201 333.268 162.27 335.576 162.681C338.242 163.158 340.999 161.211 342.227 158.906C343.421 156.667 342.898 154.31 342.766 153.731C342.589 152.899 342.286 152.098 341.868 151.356C340.07 148.18 336.789 147.233 337.014 146.682C337.275 146.046 340.501 147.662 343.126 146.323C345.04 145.345 345.75 143.242 346.182 142.009C347.023 139.609 350.723 129.053 354.811 122.774C356.66 119.932 358.541 117.045 362.181 114.864C367.709 111.555 371.068 113.606 376.382 109.831C380.157 107.145 382.827 103 383.033 103.18Z" fill="#E2E0E5"/>
<path opacity="0.52" d="M362 134.996C362.076 134.996 361.696 136.883 362 139.67C362.43 143.614 364.008 147.342 364.697 147.22C365.09 147.15 364.916 145.868 365.416 142.366C365.559 141.36 365.872 139.824 366.494 136.794C367.406 132.352 367.86 130.132 367.932 130.142C368.168 130.178 366.187 138.3 365.775 145.962C365.728 146.837 365.615 149.307 365.056 149.377C364.758 149.415 364.45 148.757 364.157 148.119C362.699 144.944 361.971 143.357 361.82 142.726C360.844 138.64 361.896 134.996 362 134.996Z" fill="#999999"/>
<path d="M364.694 135.539C364.455 137.035 364.215 138.533 363.975 140.033L364.694 135.539Z" fill="#C78E63"/>
<path opacity="0.52" d="M403.344 102.64C403.344 102.64 406.258 104.343 408.377 108.033C409.835 110.57 410.243 112.774 410.714 115.943C411.257 119.634 411.317 123.381 410.894 127.088C410.486 131.113 411.52 137.022 413.59 148.839C417.211 169.512 418.843 166.881 419.343 176.523C419.625 181.963 419.291 186.345 422.039 191.623C424.472 196.297 428.709 196.144 429.589 200.252C430.391 203.987 428.477 208.269 425.455 210.498C422.205 212.896 417.943 212.754 417.725 212.116C417.545 211.577 420.422 210.879 422.399 207.802C422.857 207.083 423.812 205.612 423.837 203.667C423.86 201.839 423.051 200.669 421.5 198.095C420.456 196.362 418.624 193.315 417.725 191.443C416.238 188.332 416.326 186.313 415.748 182.096C414.743 174.765 413.756 175.608 412.512 168.074C411.029 159.1 412.462 158.104 410.535 151.356C409.264 146.903 408.446 146.657 407.658 142.548C406.646 137.265 407.903 137.178 407.119 130.504C406.251 123.101 404.514 121.569 405.861 118.28C406.33 117.133 407.412 115.19 406.58 113.786C405.976 112.766 404.859 112.869 404.602 111.988C404.201 110.615 406.715 109.669 406.939 107.674C407.234 105.047 403.335 102.649 403.344 102.64Z" fill="#999999"/>
<path opacity="0.52" d="M431.208 178.679C431.501 178.648 431.005 165.326 428.152 149.377C426.292 138.976 423.899 130.092 423.658 130.143C423.417 130.193 425.332 138.822 427.613 153.152C430.246 169.69 430.965 178.704 431.208 178.679Z" fill="#999999"/>
<path opacity="0.26" d="M373.685 130.143C374.358 130.089 374.944 133.107 376.022 136.974C377.101 140.87 378.962 147.58 379.797 155.669C381.493 172.082 377.141 176.522 378.899 193.24C379.048 194.665 380.81 198.894 380.876 204.745C380.917 208.43 381.534 210.389 380.337 211.396C379.977 211.7 379.24 212.126 373.685 211.037C367.89 209.9 367.29 209.163 367.034 208.7C366.159 207.112 367.338 205.133 368.293 202.947C368.821 201.736 368.591 202.048 370.989 189.465C375.032 168.253 375.429 168.753 375.303 165.377C375.17 161.781 374.642 159.128 374.584 152.434C374.55 148.536 374.716 147.855 374.405 145.603C373.81 141.288 372.659 139.838 372.607 135.895C372.573 133.35 373.002 130.197 373.685 130.143Z" fill="#999999"/>
<path d="M307.235 44.0963L264.993 45.9495L263.264 73.2459L306.667 72.8355L307.235 44.0963Z" fill="#41576E"/>
<path d="M265.201 46.1403L262.858 42.1057L259.301 70.3403L262.744 73.2026L265.201 46.1403Z" fill="#384850"/>
<path d="M305.892 44.9449L302.657 41.9222L262.528 42.1973L264.797 46.3787L305.892 44.9449Z" fill="#273339"/>
<path d="M277.59 42.4519L281.845 45.83L280.261 60.5912L284.371 58.3756L286.891 60.5782L288.671 45.4248L283.992 42.2382L277.59 42.4519Z" fill="#DD5147"/>
<path d="M288.636 45.3006L282.312 45.5838L278.322 42.2485L284.258 42.1424L288.636 45.3006Z" fill="#AE3D33"/>
<path d="M235.312 44.929L179.672 37.711L171.183 72.997L228.01 82.3659L235.312 44.929Z" fill="#41576E"/>
<path d="M179.901 38.0081L177.758 32.1994L166.665 68.2945L170.512 72.8217L179.901 38.0081Z" fill="#384850"/>
<path d="M233.363 45.7307L229.823 41.0411L177.307 32.2425L179.318 38.2261L233.363 45.7307Z" fill="#273339"/>
<path d="M196.935 36.0126L201.727 41.3995L196.287 60.3333L202.165 58.375L204.957 61.8294L210.742 42.4277L205.353 37.1945L196.935 36.0126Z" fill="#DD5147"/>
<path d="M210.725 42.2574L202.393 41.1843L197.939 35.9139L205.723 37.1301L210.725 42.2574Z" fill="#AE3D33"/>
<path d="M347.437 87.3157L338.661 69.6901L314.547 80.3912L322.258 98.6331L347.437 87.3157Z" fill="#41576E"/>
<path d="M313.591 80.2148L310.599 79.3056L334.442 69.6901H338.226L313.591 80.2148Z" fill="#273339"/>
<path d="M313.86 81.1022L322.441 98.6327L318.149 97.2336L310.601 80.2145L313.86 81.1022Z" fill="#384850"/>
<path d="M321.123 75.4393L324.323 75.9903L329.531 86.792L330.447 83.8616L332.963 84.1854L328.238 74.1463L325.203 73.6362L321.123 75.4393Z" fill="#DD5147"/>
<path d="M327.702 74.2174L324.082 76.2673L321.124 75.6549L324.893 73.6362L327.702 74.2174Z" fill="#AE3D33"/>
<path d="M256.656 63.0129C253.554 68.7706 251.697 75.1256 251.207 81.6593C250.114 96.769 256.872 107.937 259.415 111.731C255.149 103.763 248.948 97.0167 241.392 92.1223C235.189 88.1333 228.227 85.4964 220.953 84.381C225.708 80.6993 230.648 77.2669 235.754 74.0977C242.466 69.9318 249.449 66.2285 256.656 63.0129Z" fill="url(#paint0_linear)"/>
<path d="M296.595 109.168C289.384 100.648 280.179 94.0994 269.824 90.1225C261.589 86.994 252.817 85.575 244.031 85.9497L247.708 75.8344C256.112 76.3377 264.308 78.6851 271.729 82.7144C286.967 91.0357 294.108 104.017 296.595 109.168Z" fill="url(#paint1_linear)"/>
<path d="M118.281 59.5562C118.261 59.5264 118.231 59.4965 118.21 59.4567C107.633 66.2362 101.592 73.0357 103.117 76.3608C104.825 80.0741 115.644 78.7003 117.806 78.4116C118.968 73.9914 120.14 69.5812 121.302 65.1611L118.281 59.5562Z" fill="#2C445E"/>
<path d="M82.2383 348.823C81.6097 348.722 78.1485 348.225 74.9512 350.553C71.9246 352.757 71.2805 355.939 71.1641 356.614C71.5288 357.227 72.041 358.12 72.623 359.214C73.2361 360.378 74.051 361.914 74.6641 363.544C75.4712 365.686 75.7117 367.409 75.8281 368.162C76.4567 372.143 79.8714 387.765 82.5332 387.788C83.643 387.796 85.2106 385.126 87.1973 373.066C88.7727 367.712 90.3403 362.365 91.9157 357.01C88.6873 354.286 85.4667 351.554 82.2383 348.823Z" fill="#263238"/>
<path d="M126.738 365.354C124.689 367.434 121.383 370.678 117.084 374.441C111.008 379.75 107.36 382.225 107.996 384.095C108.423 385.345 110.495 385.624 113.964 386.082C113.964 386.082 120.576 386.967 126.358 384.693C126.358 384.693 126.389 384.685 126.42 384.67C126.435 384.67 126.443 384.662 126.459 384.662C127.615 384.414 129.509 384.057 131.852 383.808C138.526 383.094 140.536 384.15 142.081 382.675C144.386 380.464 142.826 375.295 141.794 371.88C140.498 367.573 138.433 364.423 136.966 362.506C133.56 363.46 130.145 364.407 126.738 365.354Z" fill="#263238"/>
<path d="M83.7452 347.73C82.3794 347.746 79.8805 347.947 77.1565 349.313C74.9836 350.4 73.5246 351.789 72.6787 352.743C73.6721 354.559 74.4714 356.096 75.0534 357.221C76.3572 359.767 76.6676 360.55 76.9004 361.171C77.6222 363.166 77.855 364.757 77.9559 365.385C78.3594 367.962 81.3394 384.81 83.753 384.887C84.7463 384.918 86.1975 382.14 88.2308 369.863C89.651 364.974 91.0711 360.093 92.4913 355.203C89.5734 352.72 86.6632 350.221 83.7452 347.73Z" fill="#37474F"/>
<path d="M107.988 384.102C107.988 383.046 107.988 381.991 107.988 380.935L117.247 382.518C116.959 383.52 116.68 384.521 116.393 385.522" fill="#263238"/>
<path d="M126.722 363.14C124.674 365.22 121.368 368.464 117.068 372.228C110.992 377.536 107.344 380.012 107.981 381.882C108.408 383.131 110.48 383.411 113.949 383.869C113.949 383.869 120.561 384.753 126.342 382.479C126.342 382.479 126.373 382.472 126.404 382.456C126.42 382.456 126.428 382.448 126.443 382.448C127.599 382.2 129.493 381.843 131.837 381.595C138.511 380.881 140.521 381.936 142.065 380.462C144.37 378.25 142.81 373.081 141.778 369.667C140.482 365.36 138.418 362.209 136.951 360.292C133.536 361.247 130.129 362.193 126.722 363.14Z" fill="#37474F"/>
<path d="M121.747 367.821C122.601 367.782 124.386 367.79 126.341 368.551C128.041 369.21 129.088 370.134 129.608 370.661" stroke="white" stroke-miterlimit="10" stroke-linecap="round" stroke-linejoin="round"/>
<path d="M118.155 370.714C119.079 370.668 120.996 370.683 123.106 371.498C124.938 372.212 126.063 373.198 126.622 373.772" stroke="white" stroke-miterlimit="10" stroke-linecap="round" stroke-linejoin="round"/>
<path d="M113.894 374.238C114.817 374.192 116.734 374.207 118.845 375.022C120.676 375.736 121.802 376.722 122.36 377.296" stroke="white" stroke-miterlimit="10" stroke-linecap="round" stroke-linejoin="round"/>
<path d="M118.085 368.552L143.982 366.34L131.037 195.841L124.224 186.87L100.251 183.269C100.081 185.272 99.8711 188.252 99.7625 191.853C99.1571 211.991 102.533 227.093 103.674 232.564C107.601 251.383 107.686 270.979 109.781 290.17C111.776 308.462 114.647 335.127 118.085 368.552Z" fill="#2C455F"/>
<path d="M130.061 212.627L124.442 268.293L79.0044 344.175C84.8713 349.81 90.7305 355.436 96.5975 361.07C112.072 338.728 127.539 316.385 143.013 294.05C145.667 291.179 149.059 286.903 152.054 281.036C155.508 274.276 157.114 267.983 157.921 263.59C160.086 241.217 162.244 218.843 164.401 196.47L99.7638 186.87" fill="#2C455F"/>
<path d="M120.382 206.729C121.329 208.111 123.005 210.183 125.651 211.999C128.088 213.675 130.416 214.482 131.976 214.901C130.393 232.65 128.81 250.39 127.235 268.138L92.4907 321.655L124.441 268.294C125.807 251.376 127.18 234.45 128.546 217.532C127.452 217.09 125.007 215.933 123.013 213.318C120.964 210.633 120.506 207.901 120.382 206.729Z" fill="#133055"/>
<path d="M152.005 281.05C133.535 307.723 115.065 334.395 96.5869 361.076C107.413 344.244 118.247 327.403 129.072 310.571C136.717 300.73 144.361 290.89 152.005 281.05Z" fill="#133055"/>
<path d="M82.6128 361.498C83.4897 361.219 85.3523 360.73 87.5951 360.971C89.5429 361.18 90.8933 361.847 91.5839 362.251" stroke="white" stroke-miterlimit="10" stroke-linecap="round" stroke-linejoin="round"/>
<path d="M83.3955 366.261C84.2724 365.982 86.135 365.493 88.3778 365.734C90.3257 365.943 91.676 366.611 92.3667 367.014" stroke="white" stroke-miterlimit="10" stroke-linecap="round" stroke-linejoin="round"/>
<path d="M84.187 371.002C85.064 370.723 86.9265 370.234 89.1693 370.475C91.1172 370.684 92.4675 371.352 93.1582 371.755" stroke="white" stroke-miterlimit="10" stroke-linecap="round" stroke-linejoin="round"/>
<path d="M115.764 66.9743C116.317 67.0139 116.859 67.1462 117.367 67.3654C119.249 68.1881 119.241 69.6844 120.974 70.2987C121.781 70.5849 122.933 70.6688 123.579 70.1026C123.758 69.9408 123.895 69.74 123.979 69.5166C124.132 69.1392 126.288 63.8585 128.988 60.9128C129.588 60.2564 130.26 59.6662 130.991 59.1526C134.088 56.9976 136.709 57.3714 137.001 56.2205C137.254 55.2337 135.592 53.9409 134.397 53.2872C131.628 51.7724 128.56 52.5187 125.582 53.2872C121.721 54.2826 119.714 54.8007 118.169 56.6115C117.314 57.6094 116.808 58.7665 115.764 66.9743Z" fill="#333333"/>
<path d="M117.769 93.5682C117.809 93.2224 117.894 92.8829 118.022 92.558C118.367 91.6945 118.927 91.3245 119.377 89.6568C119.851 87.9027 119.693 86.3373 119.377 83.2042C119.185 81.3095 119.09 80.3671 118.775 79.4888C117.911 77.0896 116.704 76.8392 115.363 74.6004C113.726 71.8533 113.074 68.0824 114.362 67.1709C115.079 66.6626 116.372 67.0598 117.366 67.3658C117.937 67.5409 118.802 67.8074 119.57 68.5388C120.417 69.3456 120.312 69.9241 120.973 70.2991C121.719 70.7222 122.86 70.6346 123.578 70.1029C124.176 69.6589 124.137 69.1556 124.78 66.7798C125.144 65.4341 125.368 64.6175 125.781 63.6504C126.163 62.7607 126.633 61.9093 127.184 61.1081C128.113 59.7597 129.264 58.5705 130.59 57.5889C131.442 56.9598 132.533 56.1555 134.196 55.6337C136.194 55.0071 137.861 55.1526 138.804 55.2427C140.573 55.4129 143.646 55.709 145.616 57.9799C146.754 59.2923 147.029 60.6936 147.418 62.6734C147.588 63.5369 148.115 66.2112 147.619 68.9299C147.509 69.5343 147.329 70.2485 147.418 71.2736C147.497 72.1703 147.713 72.5342 147.82 73.6172C147.875 74.2679 147.875 74.9218 147.82 75.5724C147.67 78.1961 147.592 79.5073 147.418 80.0698C146.878 81.8337 146.275 81.5426 145.216 84.1762C144.852 85.0804 144.738 85.5726 144.213 86.3275C143.694 87.1099 143.012 87.7762 142.21 88.2826C140.96 89.0511 140.27 88.8846 140.006 89.4557C139.742 90.0268 140.385 90.5474 140.807 91.607C141.447 93.2105 141.051 94.6328 141.008 95.1262C140.647 99.2955 159.368 106.867 158.803 109.764C158.551 111.073 154.449 110.966 146.132 111.654C130.882 112.916 128.297 114.631 123.43 112.341C119.386 110.437 114.528 106.128 114.982 102.379C115.237 100.302 117.498 95.3445 117.769 93.5682Z" fill="#DF9E74"/>
<path d="M144.614 78.7022C144.496 78.3075 144.088 78.0855 141.809 77.5291C139.063 76.8556 139.029 77.0197 134.797 76.3561C133.801 76.1994 133.143 76.0872 132.994 76.3561C132.76 76.7767 133.92 77.8708 134.797 78.5073C135.787 79.2252 136.281 79.261 139.806 80.4625C141.527 81.0496 141.955 81.2248 142.611 81.0496C143.802 80.7351 144.855 79.5114 144.614 78.7022Z" fill="#E6E6E6"/>
<path d="M144.015 68.3401C144.025 68.387 144.87 68.0058 145.817 68.3401C146.575 68.6066 146.954 69.1765 147.019 69.1222C147.083 69.0679 146.797 68.4511 146.218 68.144C145.246 67.6296 144.001 68.2846 144.015 68.3401Z" fill="black"/>
<path d="M145.817 68.3399C145.51 68.1943 145.355 68.1216 145.216 68.1438C144.831 68.2067 144.458 68.8 144.615 69.3168C144.655 69.4568 144.732 69.5842 144.837 69.687C144.942 69.7898 145.073 69.8645 145.216 69.904C145.876 70.0422 146.574 69.1281 146.418 68.7309C146.367 68.6014 146.183 68.5151 145.817 68.3399Z" fill="black"/>
<path d="M141.41 66.3882C141.839 66.2772 142.428 67.1961 143.414 68.7319C144.055 69.719 144.592 70.7671 145.016 71.8601C145.569 73.2848 145.848 73.999 145.618 74.4024C144.818 75.8024 140.278 75.4324 139.607 73.8152C139.307 73.0936 140.02 72.7051 140.609 70.687C141.351 68.1484 140.863 66.5288 141.41 66.3882Z" fill="#C78E63"/>
<path d="M140.007 89.4604C139.4 88.5969 138.215 88.7203 136.802 88.4822C133.936 87.9888 132.816 86.5443 127.986 83.0078C122.879 79.2678 118.878 77.378 118.77 77.5322C118.644 77.7062 123.849 79.8845 125.782 84.7668C126.317 86.1163 126.27 86.7849 127.185 88.8732C127.943 90.5936 128.883 92.2319 129.99 93.7617C131.681 96.0696 132.87 96.8578 132.794 98.4491C132.751 99.3816 132.305 99.9836 132.595 100.209C133.167 100.653 135.467 98.7291 135.8 98.4491C136.375 97.9692 136.911 97.4462 137.402 96.885C138.135 96.04 139.449 94.4932 140.007 92.1914C140.281 91.0677 140.5 90.1734 140.007 89.4604Z" fill="#C78E63"/>
<path d="M128.435 71.5486C128.267 75.3725 128.098 79.1964 127.93 83.0203C128.827 83.9197 129.799 84.7449 130.837 85.4874C133.572 87.4279 136.697 88.7823 140.006 89.4618C141.593 88.6773 143.024 87.624 144.234 86.3509C148.876 81.434 148.423 74.9161 148.278 73.3989L128.435 71.5486Z" fill="#E6E6E6"/>
<path d="M127.932 83.019L118.771 77.5323L132.966 83.019H127.932Z" fill="#E6E6E6"/>
<path d="M120.975 70.298L141.811 77.5326L137.605 77.6461L120.975 70.298Z" fill="#E6E6E6"/>
<path d="M163.788 123.025C166.559 128.273 170.979 135.967 177.343 144.614C179.412 147.423 203.219 179.751 211.984 175.486C216.397 173.343 215.525 162.633 215 156.159C214.734 152.914 213.928 144.806 208.976 136.077C206.315 131.384 204.113 129.529 184.128 113.483C171.053 102.988 169.508 101.783 166.057 100.179C156.478 95.7301 147.321 95.1832 141.208 95.4123C141.009 95.8558 137.735 102.759 130.041 103.823C124.786 104.548 119.516 102.271 116.36 97.9253C109.945 98.6052 101.741 100.083 92.6423 103.321C84.527 106.203 77.8973 109.706 72.8124 112.862C75.4879 106.587 78.1708 100.313 80.8463 94.0376C77.9195 91.6947 74.9927 89.3517 72.0585 87.0088C67.5426 93.1137 63.0193 99.2261 58.5035 105.331C48.8435 122.604 51.9477 127.903 53.2337 129.426C56.2714 133.025 62.3985 131.295 85.1109 130.933C91.0163 130.837 95.8944 130.874 99.2129 130.919C99.952 153.853 100.691 176.779 101.43 199.714H163.67L163.788 123.025Z" fill="#AE0030"/>
<path d="M116.345 97.9183C110.698 98.9678 105.051 100.01 99.4048 101.059C98.9761 103.136 98.3848 106.27 97.897 110.099C95.8275 126.359 97.7048 138.835 98.3996 143.986C99.9073 155.184 101.312 172.286 101.415 199.707C108.762 202.079 119.819 204.718 133.418 204.6C146.145 204.489 156.544 201.998 163.654 199.707C164.593 163.144 165.051 136.418 165.044 130.557C165.044 128.317 164.97 125.834 163.788 123.025C162.531 120.032 161.178 119.463 159.774 116.248C158.569 113.498 158.355 111.2 158.141 108.842C157.912 106.307 157.853 102.331 159.087 97.5562C153.122 96.8392 147.158 96.1297 141.201 95.4128C142.413 98.3618 145.561 107.12 142.96 118.007C140.306 129.101 133.322 135.546 130.912 137.586C128.259 135.716 119.227 128.857 116.101 116.248C114.098 108.17 115.414 101.37 116.345 97.9183Z" fill="#ED3658"/>
<path d="M71.4152 86.8758L80.7057 95.4123C81.1713 95.0649 81.9104 94.4811 82.716 93.6533C84.6968 91.6134 84.7337 90.5343 85.9754 89.8913C87.3723 89.167 88.1927 90.0687 90.7426 90.1426C91.5334 90.1647 94.8224 90.1721 97.2688 88.3835C99.8187 86.5284 100.358 83.5424 101.031 79.8469C101.629 76.5506 102.125 73.8307 100.528 72.0642C99.1905 70.5934 96.7884 70.2165 95.7611 70.0539C93.322 69.677 92.3317 70.3496 91.4965 69.5513C90.7426 68.8344 91.1713 67.9401 90.9939 64.7841C90.8535 62.2343 90.7426 60.6378 89.7374 59.2631C88.9096 58.1249 87.764 57.5558 86.9732 57.2527C87.0767 58.524 87.0989 59.9578 86.9732 61.5173C86.6554 65.4419 85.5024 68.6127 84.4603 70.8078C83.906 71.6799 83.1521 72.8034 82.1987 74.0672C80.5726 76.2328 79.4122 77.7849 77.6828 79.337C74.5638 82.1381 72.45 82.3968 71.6591 84.858C71.4004 85.6932 71.3931 86.4249 71.4152 86.8758Z" fill="#C4C4C4"/>
<path d="M131.003 197.07C130.544 195.385 130.308 193.699 130.131 192.014C129.968 190.329 129.894 188.644 129.894 186.959C129.894 185.274 129.968 183.589 130.131 181.903C130.308 180.218 130.537 178.533 131.003 176.848C131.468 178.533 131.697 180.218 131.875 181.903C132.037 183.589 132.111 185.274 132.111 186.959C132.111 188.644 132.037 190.329 131.875 192.014C131.69 193.699 131.461 195.385 131.003 197.07Z" fill="#762824"/>
<path opacity="0.49" d="M99.4036 101.059C98.9675 103.616 98.3762 107.437 97.8958 112.101C96.0702 129.972 97.7406 142.81 98.901 154.769C99.9283 165.308 101.081 180.512 101.414 199.699C103.639 200.6 106.24 201.495 109.197 202.212C113.166 203.172 116.75 203.579 119.736 203.719C117.785 193.062 116.373 184.155 114.466 174.85C111.931 162.463 110.261 153.801 106.432 144.229C104.296 137.592 102.035 131.428 101.665 122.64C101.436 117.311 102.013 113.453 102.67 110.593C103.823 105.575 105.693 101.665 107.186 99.0484C104.592 99.721 101.998 100.386 99.4036 101.059Z" fill="#762824" stroke="#762824" stroke-miterlimit="10"/>
<path d="M99.2583 156.486C108.608 157.491 119.413 158.201 131.409 158.186C143.065 158.171 153.582 157.469 162.717 156.486C162.71 159.235 162.702 161.985 162.695 164.734C154.905 166.124 144.58 167.358 132.414 167.181C119.037 166.981 107.876 165.148 99.7535 163.3C99.5909 161.031 99.4209 158.762 99.2583 156.486Z" fill="#FAFBFB"/>
<path d="M100.278 171.384C109.627 172.389 120.433 173.098 132.429 173.084C144.084 173.069 154.601 172.367 163.737 171.384C163.729 174.133 163.722 176.883 163.715 179.632C155.924 181.022 145.599 182.256 133.434 182.078C120.056 181.879 108.896 180.046 100.773 178.198C100.61 175.929 100.448 173.653 100.278 171.384Z" fill="#FAFBFB"/>
<path opacity="0.5" d="M99.2583 156.486L99.7535 163.3C101.712 163.803 103.811 164.276 106.058 164.69C108.283 165.096 110.396 165.399 112.392 165.629C111.69 162.909 110.995 160.189 110.293 157.469L99.2583 156.486Z" fill="#949598"/>
<path opacity="0.5" d="M100.27 171.384L100.765 178.198C102.731 178.701 104.837 179.174 107.069 179.588C110.092 180.142 112.945 180.519 115.591 180.755C115.525 179.484 115.377 178.05 115.088 176.491C114.815 174.991 114.46 173.645 114.083 172.478C109.486 172.108 104.881 171.746 100.27 171.384Z" fill="#949598"/>
<path opacity="0.35" d="M127.396 185.021C131.254 187.977 136.642 191.51 143.589 194.437C151.416 197.733 158.482 199.108 163.656 199.707C163.7 191.828 163.744 183.949 163.789 176.07L127.396 185.021Z" fill="#762824" stroke="#762824" stroke-miterlimit="10"/>
<path opacity="0.56" d="M116.597 97.9183C116.324 101.17 116.39 105.908 118.356 110.971C119.908 114.962 121.682 116.684 123.877 120.513C125.836 123.92 128.172 129.071 129.398 136.329C129.376 136.307 124.949 132.397 122.37 129.3C117.558 123.528 116.242 117.083 115.843 114.991C114.875 109.958 115.326 105.797 115.592 103.447C115.858 101.178 116.257 99.2931 116.597 97.9183Z" fill="#263238"/>
<path d="M126.389 125.169L173.58 126.536L174.578 187.785L127.394 185.021L126.389 125.169Z" fill="#2C455F"/>
<path d="M155.525 177.958L172.615 177.961L172.616 185.468L155.527 184.986L155.525 177.958Z" fill="white"/>
<path d="M156.462 184.071L172.547 184.607" stroke="white"/>
<path d="M173.582 126.537L204.705 121.518V178.813L174.58 187.786L173.582 126.537Z" fill="#37474F"/>
<path d="M126.389 125.17L173.581 126.537L204.704 121.519L161.873 119.774L126.389 125.17Z" fill="#263238"/>
<path opacity="0.45" d="M99.4049 101.061C94.4678 102.384 88.7176 104.35 82.5905 107.336C78.9246 109.125 75.6578 111.01 72.8048 112.857C71.8736 113.604 70.7132 114.698 69.6637 116.243C69.1241 117.041 68.7176 117.809 68.4072 118.504C69.3681 117.647 70.8241 116.398 72.6718 114.993C78.1707 110.81 82.9157 108.386 87.4833 106.206C90.4175 104.809 94.4604 102.983 99.4049 101.061Z" fill="#263238"/>
<path opacity="0.45" d="M79.9531 94.6573C79.7609 95.1895 78.8888 97.6359 78.6966 98.1681C76.6936 103.778 74.6833 109.38 72.673 114.983C69.6574 117.577 66.6493 120.171 63.6338 122.765C64.1438 122.285 64.8459 121.605 65.6441 120.755C67.248 119.055 69.3174 116.852 70.9139 113.977C72.5547 111.028 71.9117 110.585 74.1733 105.943C74.8385 104.591 75.0381 104.325 76.1837 102.181C77.8023 99.1511 79.0588 96.5642 79.9531 94.6573Z" fill="#263238"/>
<path opacity="0.34" d="M99.4045 101.061C98.6285 105.23 97.9633 109.805 97.5198 114.742C96.9951 120.588 96.8546 125.999 96.9507 130.891C94.8147 130.854 92.6566 130.825 90.491 130.81C85.0882 130.766 79.7815 130.795 74.5635 130.891C84.933 131.165 88.9981 128.445 90.7423 125.784C92.9448 122.429 91.4962 119.14 93.2552 112.732C94.6965 107.469 97.3425 103.567 99.4045 101.061Z" fill="#263238"/>
<path opacity="0.49" d="M71.417 86.8751L80.7074 95.4117C81.3948 94.8647 82.1117 94.2365 82.8434 93.527C84.1812 92.2262 85.2529 90.9401 86.1028 89.765C84.5729 90.0902 82.2965 90.3858 79.5766 90.0163C75.7037 89.4841 72.8952 87.8803 71.417 86.8751Z" fill="white"/>
<path opacity="0.49" d="M86.1021 89.7675C87.5581 89.1984 92.0592 87.2324 95.1412 82.2361C98.2897 77.129 97.9424 72.1031 97.7798 70.5658C98.5484 70.7284 99.694 71.0979 100.544 72.0735C101.239 72.8792 101.889 74.2687 101.298 78.0972C100.522 83.1526 100.056 86.1681 97.2846 88.3854C92.7539 92.007 86.5899 89.9375 86.1021 89.7675Z" fill="white"/>
<path d="M205.207 165.442C208.134 168.117 211.061 170.8 213.995 173.476C213.211 175.094 212.154 176.905 210.728 178.745C206.9 183.697 202.31 186.388 199.346 187.785C196.951 187.703 194.549 187.615 192.155 187.533C189.072 186.055 186.789 183.668 186.885 181.258C187.018 177.866 191.829 175.508 192.908 174.983C195.843 173.549 199.952 172.803 199.937 171.724C199.937 171.665 199.93 171.561 199.908 171.465C199.782 171.044 199.235 170.674 197.18 167.955C193.965 163.712 193.67 162.456 193.921 161.428C194.15 160.475 194.86 159.824 195.429 159.418C196.685 160.527 198.267 161.754 200.196 162.929C202.007 164.037 203.721 164.85 205.207 165.442Z" fill="white"/>
<path opacity="0.49" d="M205.206 165.441C205.531 167.562 205.709 170.268 205.332 173.35C204.475 180.312 201.252 185.286 199.345 187.784C201.829 186.624 205.583 184.466 209.101 180.63C211.459 178.05 213.004 175.486 213.994 173.475C211.06 170.8 208.133 168.117 205.206 165.441Z" fill="#C4C4C4"/>
<path d="M138.518 65.2481C138.297 65.3726 137.92 65.0511 136.673 64.3592C135.485 63.6999 134.876 63.3662 134.252 63.3062C133.435 63.2289 132.713 63.4677 132.508 63.5378C131.86 63.7548 131.568 64.0198 131.54 63.9902C131.483 63.9311 132.391 62.7553 133.813 62.6355C134.085 62.6113 134.595 62.7295 135.608 62.9642C137.738 63.4579 138.045 63.6363 138.271 63.904C138.683 64.3853 138.777 65.097 138.518 65.2481Z" fill="#333333"/>
<path d="M142.84 66.3731C142.968 66.5448 143.291 66.3486 144.287 66.0396C145.236 65.7454 145.722 65.5982 146.164 65.7061C146.743 65.8484 147.194 66.2554 147.322 66.3731C147.726 66.741 147.875 67.0597 147.901 67.0401C147.952 67.0009 147.556 65.6865 146.598 65.2059C146.415 65.1127 146.041 65.0882 145.296 65.0391C143.73 64.9361 143.483 65.0195 143.274 65.2059C142.891 65.5394 142.687 66.1671 142.84 66.3731Z" fill="#333333"/>
<path d="M134.889 66.7051C134.798 66.8977 134.768 67.1124 134.804 67.3216C134.839 67.5308 134.938 67.7247 135.088 67.8782C135.268 68.0561 135.503 68.1715 135.756 68.2067C136.009 68.2419 136.268 68.195 136.491 68.0731C137.036 67.7758 137.271 67.0382 136.997 66.6077C136.791 66.2894 136.365 66.2376 136.195 66.2154C136.053 66.1994 135.2 66.1143 134.889 66.7051Z" fill="black"/>
<path d="M133.583 67.1908C133.618 67.2451 134.377 66.5086 135.586 66.4087C136.952 66.2952 137.949 67.0736 137.987 66.9959C138.025 66.9182 137.056 65.977 135.783 66.0177C134.469 66.0596 133.541 67.1279 133.583 67.1908Z" fill="black"/>
<path d="M115.7 66.8482C114.973 65.4278 114.95 61.8786 115.24 58.7239C115.398 57.0073 118.426 52.3091 122.351 49.4721C127.441 45.7951 137.708 47.3352 139.72 48.6228C147.989 53.9125 147.548 60.2154 147.906 61.4133C150.95 63.1351 146.666 60.9442 147.906 61.4133C141.229 61.0886 129.269 61.475 127.441 61.9189C120.208 63.6766 116.976 66.266 115.7 66.8482Z" fill="#586B80"/>
<path d="M135.116 59.8804C135.902 58.6329 139.166 55.5288 142.79 54.2513C145.304 53.3663 147.755 51.8825 148.93 52.2049C147.934 53.0719 146.032 54.8084 145.036 55.6754C145.783 55.5132 146.58 55.3751 147.425 55.275C148.702 55.1248 150.404 55.2449 151.488 55.275C151.167 55.291 148.169 55.307 146.977 57.878C146.652 58.5808 146.502 59.2897 146.435 59.8804C145.323 59.2536 143.139 59.1755 141.256 58.8792C138.587 58.4587 136.514 59.3878 135.116 59.8804Z" fill="#223239"/>
<path d="M143.814 133.641V124.943L170.073 119.827L182.697 120.339L156.438 125.967V134.152L154.418 132.618L151.894 134.152L149.874 132.618L147.854 134.152L145.834 132.106L143.814 133.641Z" fill="#E84F44"/>
<path d="M156.093 125.966L143.814 124.943V133.64L145.779 132.105L147.743 134.152L149.708 132.617L151.672 134.152L154.128 132.617L156.093 134.152V125.966Z" fill="#AE3B33"/>
<path d="M177.522 180.297C177.441 180.273 177.367 180.217 177.307 180.136C177.225 180.005 177.169 179.847 177.144 179.676C177.12 179.506 177.128 179.33 177.167 179.165L177.596 176.563L177.629 176.363L177.722 176.394L179.373 175.682L178.894 178.584C178.833 178.955 178.711 179.3 178.536 179.591C178.362 179.882 178.141 180.111 177.892 180.258C177.775 180.323 177.646 180.336 177.522 180.297ZM177.799 176.833L177.396 179.282C177.368 179.39 177.359 179.506 177.37 179.62C177.382 179.734 177.413 179.843 177.461 179.936C177.508 179.983 177.562 180.013 177.619 180.022C177.676 180.031 177.734 180.019 177.787 179.988C177.998 179.862 178.186 179.669 178.335 179.424C178.485 179.179 178.592 178.888 178.648 178.575L178.684 178.36L178.137 178.177L178.2 177.129L177.799 176.833ZM178.41 177.888L178.743 177.999L179.039 176.202L178.058 176.628L178.467 176.878L178.41 177.888Z" fill="#E0E0E0"/>
<path d="M177.437 182.456C177.407 182.446 177.38 182.419 177.364 182.382C177.347 182.344 177.342 182.299 177.349 182.256L177.708 180.076C177.708 180.05 177.713 180.024 177.721 180.001C177.729 179.978 177.741 179.958 177.756 179.942C177.77 179.926 177.787 179.915 177.805 179.91C177.823 179.904 177.842 179.904 177.859 179.91C177.877 179.916 177.894 179.928 177.909 179.944C177.923 179.96 177.935 179.981 177.943 180.005C177.951 180.028 177.955 180.054 177.955 180.079C177.955 180.105 177.951 180.131 177.943 180.154L177.584 182.335C177.58 182.357 177.573 182.377 177.564 182.395C177.555 182.413 177.543 182.428 177.529 182.44C177.515 182.451 177.5 182.458 177.484 182.461C177.468 182.464 177.452 182.462 177.437 182.456Z" fill="#E0E0E0"/>
<path d="M176.673 182.786C176.652 182.778 176.633 182.763 176.617 182.742C176.602 182.722 176.59 182.696 176.583 182.667C176.575 182.624 176.579 182.579 176.594 182.54C176.609 182.502 176.634 182.472 176.664 182.459L178.194 181.812C178.222 181.808 178.251 181.818 178.274 181.84C178.298 181.862 178.316 181.895 178.324 181.933C178.333 181.971 178.332 182.012 178.322 182.049C178.311 182.086 178.292 182.117 178.268 182.136L176.732 182.781C176.713 182.79 176.693 182.792 176.673 182.786Z" fill="#E0E0E0"/>
<path d="M182.109 180.631C182.063 180.617 182.02 180.586 181.985 180.541C181.947 180.483 181.92 180.413 181.907 180.336C181.894 180.259 181.897 180.179 181.913 180.104L181.988 179.651C181.995 179.608 182.014 179.571 182.04 179.548C182.067 179.525 182.099 179.518 182.129 179.528C182.16 179.538 182.186 179.565 182.203 179.602C182.219 179.64 182.225 179.685 182.218 179.727L182.143 180.18C182.129 180.212 182.123 180.25 182.125 180.288C182.125 180.288 182.163 180.301 182.202 180.313C182.293 180.242 182.371 180.142 182.431 180.022C182.491 179.902 182.53 179.764 182.547 179.619L183.025 176.716C183.032 176.674 183.051 176.637 183.078 176.614C183.104 176.591 183.136 176.583 183.167 176.594C183.197 176.604 183.223 176.63 183.24 176.668C183.257 176.705 183.262 176.75 183.255 176.793L182.776 179.695C182.75 179.892 182.692 180.077 182.606 180.235C182.519 180.393 182.408 180.521 182.28 180.607C182.225 180.635 182.167 180.643 182.109 180.631Z" fill="#E0E0E0"/>
<path d="M181.299 177.678L181.351 177.363C181.499 176.648 181.765 175.992 182.128 175.45C182.491 174.908 182.94 174.496 183.439 174.246C183.624 174.115 183.833 174.068 184.038 174.11C184.243 174.153 184.434 174.283 184.586 174.483C184.737 174.683 184.841 174.943 184.884 175.229C184.927 175.514 184.907 175.811 184.826 176.078L184.81 176.178L181.299 177.678ZM184.118 174.57C183.91 174.513 183.696 174.534 183.497 174.63C183.069 174.848 182.68 175.195 182.357 175.647C182.035 176.099 181.787 176.644 181.63 177.246L184.591 176C184.635 175.797 184.641 175.583 184.61 175.375C184.579 175.168 184.51 174.975 184.412 174.814C184.334 174.689 184.234 174.595 184.123 174.539L184.118 174.57Z" fill="#E0E0E0"/>
<path d="M186.837 178.679C186.806 178.668 186.78 178.642 186.763 178.604C186.747 178.567 186.741 178.522 186.748 178.479L187.665 172.92C187.672 172.877 187.691 172.84 187.717 172.817C187.744 172.794 187.776 172.787 187.806 172.797C187.837 172.807 187.863 172.834 187.88 172.872C187.896 172.909 187.901 172.954 187.894 172.997L186.978 178.556C186.974 178.577 186.968 178.597 186.959 178.614C186.95 178.632 186.939 178.647 186.926 178.658C186.912 178.67 186.898 178.677 186.883 178.681C186.867 178.684 186.852 178.684 186.837 178.679Z" fill="#E0E0E0"/>
<path d="M187.232 174.111L187.183 174.095C187.17 174.082 187.159 174.065 187.151 174.046C187.143 174.027 187.138 174.006 187.135 173.984C187.133 173.962 187.134 173.94 187.138 173.919C187.142 173.897 187.149 173.877 187.158 173.86L187.795 172.655L188.128 173.576C188.136 173.595 188.142 173.615 188.144 173.637C188.147 173.659 188.147 173.681 188.143 173.703C188.139 173.724 188.133 173.744 188.124 173.762C188.115 173.78 188.103 173.795 188.09 173.806C188.063 173.828 188.031 173.834 188 173.824C187.97 173.814 187.943 173.788 187.926 173.752L187.765 173.325L187.354 174.103C187.337 174.12 187.316 174.13 187.294 174.131C187.273 174.133 187.251 174.126 187.232 174.111Z" fill="#E0E0E0"/>
<path d="M188.038 178.173C188.007 178.162 187.98 178.136 187.962 178.098C187.945 178.061 187.938 178.015 187.944 177.971L188.862 172.405C188.874 172.369 188.894 172.34 188.92 172.323C188.945 172.306 188.974 172.302 189.001 172.311C189.029 172.32 189.053 172.342 189.071 172.374C189.088 172.405 189.097 172.444 189.097 172.483L188.183 178.027C188.181 178.05 188.175 178.072 188.166 178.093C188.158 178.113 188.146 178.13 188.133 178.144C188.119 178.157 188.104 178.167 188.087 178.172C188.071 178.177 188.054 178.177 188.038 178.173Z" fill="#E0E0E0"/>
<path d="M188.441 173.61L188.397 173.595C188.385 173.582 188.374 173.566 188.366 173.547C188.357 173.528 188.352 173.507 188.35 173.485C188.347 173.463 188.348 173.441 188.352 173.419C188.356 173.398 188.363 173.378 188.373 173.36L189.009 172.155L189.342 173.077C189.357 173.116 189.36 173.162 189.351 173.204C189.342 173.247 189.321 173.282 189.293 173.303C189.279 173.313 189.264 173.32 189.248 173.322C189.233 173.324 189.217 173.322 189.202 173.315C189.172 173.302 189.147 173.272 189.132 173.233L188.971 172.807L188.56 173.585C188.544 173.603 188.524 173.615 188.503 173.619C188.482 173.624 188.461 173.62 188.441 173.61Z" fill="#E0E0E0"/>
<path d="M160.186 179.175V183.268" stroke="#2C455F"/>
<path d="M165.301 179.175V183.268" stroke="#2C455F"/>
<path d="M167.349 179.175V183.268" stroke="#2C455F"/>
<path d="M169.395 179.175V183.268" stroke="#2C455F"/>
<path d="M171.44 179.175V183.268" stroke="#2C455F"/>
<path d="M157.114 179.175H158.137V183.268H157.114V179.175Z" stroke="#2C455F"/>
<path d="M162.232 179.175H163.255V183.268H162.232V179.175Z" stroke="#2C455F"/>
<defs>
<linearGradient id="paint0_linear" x1="259.803" y1="87.13" x2="221.973" y2="92.0169" gradientUnits="userSpaceOnUse">
<stop stop-color="#DA3A5A"/>
</linearGradient>
<linearGradient id="paint1_linear" x1="-110561" y1="-299442" x2="-120287" y2="-299442" gradientUnits="userSpaceOnUse">
<stop stop-color="#DA3A5A"/>
</linearGradient>
</defs>
</svg>
