<svg width="344" height="92" viewBox="0 0 344 92" fill="none" xmlns="http://www.w3.org/2000/svg">
<circle cx="4" cy="27" r="3" fill="white"/>
<circle cx="8" cy="8.14673" r="8" fill="#979797"/>
<circle cx="8" cy="8.14673" r="3" fill="white"/>
<line x1="8.5" y1="16.1467" x2="8.5" y2="65.1467" stroke="#888888" stroke-dasharray="3 3"/>
<g clip-path="url(#clip0)">
<path d="M17.0028 71.8789C17.0038 70.7426 16.7618 69.62 16.2942 68.5911C15.8265 67.5621 15.1446 66.652 14.297 65.9256C13.4493 65.1992 12.4568 64.6743 11.3901 64.3882C10.3233 64.1021 9.20844 64.062 8.12489 64.2705C7.04133 64.4791 6.01568 64.9312 5.1209 65.5949C4.22613 66.2585 3.48422 67.1172 2.94798 68.11C2.41173 69.1028 2.09432 70.2052 2.01833 71.3388C1.94235 72.4724 2.10966 73.6093 2.50835 74.6687L2.52893 74.7395L2.54953 74.7796C2.76015 75.3152 3.02874 75.8247 3.3502 76.2983C4.95154 79.364 8.39899 85.8563 8.92057 86.6746C9.16992 87.0684 9.37811 87.1462 9.50164 87.1462C9.63113 87.1301 9.75381 87.0775 9.85629 86.9943C9.95877 86.9112 10.0371 86.8005 10.0827 86.6746L15.6233 76.3407C16.5216 75.0373 17.0038 73.4778 17.0028 71.8789Z" fill="#979797"/>
<circle cx="9.5" cy="71.6467" r="3.5" fill="white"/>
</g>
<defs>
<clipPath id="clip0">
<rect width="15" height="23" fill="white" transform="translate(2 64.1467)"/>
</clipPath>
</defs>
</svg>

